<svg width="140" height="26" viewBox="0 0 140 26" fill="none" xmlns="http://www.w3.org/2000/svg">
<g clip-path="url(#clip0_3325_2295)">
<path d="M10.8333 21.6667C12.256 21.6667 13.6647 21.3865 14.9791 20.842C16.2934 20.2976 17.4877 19.4996 18.4937 18.4937C19.4996 17.4877 20.2976 16.2934 20.842 14.9791C21.3865 13.6647 21.6667 12.256 21.6667 10.8333C21.6667 9.41068 21.3865 8.00196 20.842 6.6876C20.2976 5.37324 19.4996 4.17898 18.4937 3.17301C17.4877 2.16704 16.2934 1.36906 14.9791 0.824638C13.6647 0.280212 12.256 -6.21862e-08 10.8333 0V4.32824C11.6876 4.32824 12.5335 4.49649 13.3227 4.82341C14.112 5.15032 14.8291 5.62948 15.4331 6.23353C16.0372 6.83759 16.5163 7.55471 16.8433 8.34394C17.1702 9.13317 17.3384 9.97907 17.3384 10.8333C17.3384 11.6876 17.1702 12.5335 16.8433 13.3227C16.5163 14.112 16.0372 14.8291 15.4331 15.4331C14.8291 16.0372 14.112 16.5163 13.3227 16.8433C12.5335 17.1702 11.6876 17.3384 10.8333 17.3384V21.6667Z" fill="white"/>
<path d="M10.8333 0C9.00413 -2.1813e-08 7.20472 0.463172 5.60285 1.34633C4.00098 2.2295 2.64881 3.50389 1.67242 5.0507L5.33248 7.36103C5.91877 6.43222 6.7307 5.66698 7.69258 5.13667C8.65446 4.60636 9.73495 4.32824 10.8333 4.32824V0Z" fill="white"/>
<path d="M6.5 21.6667C5.21442 21.6667 3.95771 21.2855 2.88879 20.5713C1.81987 19.8571 0.986753 18.8419 0.494783 17.6542C0.00281334 16.4665 -0.125908 15.1595 0.124895 13.8987C0.375699 12.6378 0.994764 11.4796 1.90381 10.5706C2.81285 9.66151 3.97104 9.04245 5.23191 8.79164C6.49279 8.54084 7.79972 8.66956 8.98744 9.16153C10.1752 9.6535 11.1903 10.4866 11.9046 11.5555C12.6188 12.6245 13 13.8812 13 15.1667L8.67395 15.1667C8.67395 14.7368 8.54645 14.3165 8.30757 13.959C8.06869 13.6015 7.72917 13.3228 7.33193 13.1583C6.9347 12.9937 6.49759 12.9507 6.07588 13.0346C5.65418 13.1185 5.26682 13.3255 4.96279 13.6295C4.65876 13.9336 4.45171 14.3209 4.36783 14.7426C4.28394 15.1643 4.32699 15.6014 4.49154 15.9987C4.65608 16.3959 4.93472 16.7354 5.29222 16.9743C5.64972 17.2132 6.07003 17.3407 6.5 17.3407L6.5 21.6667Z" fill="white"/>
<path d="M13 15.1667V26.0001H8.66667V15.1667H13Z" fill="white"/>
<rect x="10.833" y="17.3333" width="4.33333" height="4.33333" transform="rotate(90 10.833 17.3333)" fill="white"/>
</g>
<g clip-path="url(#clip1_3325_2295)">
<path d="M29.4668 13C28.1812 13 26.9245 12.6188 25.8556 11.9046C24.7867 11.1903 23.9535 10.1752 23.4616 8.98744C22.9696 7.79972 22.8409 6.49279 23.0917 5.23191C23.3425 3.97104 23.9616 2.81285 24.8706 1.90381C25.7796 0.994765 26.9378 0.3757 28.1987 0.124896C29.4596 -0.125908 30.7665 0.00281327 31.9542 0.494783C33.142 0.986752 34.1571 1.81987 34.8713 2.88879C35.5856 3.95771 35.9668 5.21442 35.9668 6.5L31.6407 6.5C31.6407 6.07003 31.5132 5.64972 31.2744 5.29222C31.0355 4.93472 30.696 4.65608 30.2987 4.49154C29.9015 4.327 29.4644 4.28394 29.0427 4.36783C28.621 4.45171 28.2336 4.65876 27.9296 4.96279C27.6256 5.26682 27.4185 5.65418 27.3346 6.07588C27.2507 6.49759 27.2938 6.9347 27.4583 7.33193C27.6229 7.72917 27.9015 8.06869 28.259 8.30757C28.6165 8.54645 29.0368 8.67395 29.4668 8.67395L29.4668 13Z" fill="white"/>
<path d="M31.6328 6.5C31.6328 5.21442 32.014 3.95771 32.7283 2.88879C33.4425 1.81987 34.4577 0.986753 35.6454 0.494783C36.8331 0.00281342 38.14 -0.125908 39.4009 0.124896C40.6618 0.3757 41.82 0.994765 42.729 1.90381C43.638 2.81285 44.2571 3.97104 44.5079 5.23191C44.7587 6.49279 44.63 7.79972 44.138 8.98744C43.6461 10.1752 42.8129 11.1903 41.744 11.9046C40.6751 12.6188 39.4184 13 38.1328 13V8.67395C38.5628 8.67395 38.9831 8.54645 39.3406 8.30757C39.6981 8.06869 39.9767 7.72917 40.1413 7.33193C40.3058 6.9347 40.3489 6.49759 40.265 6.07588C40.1811 5.65418 39.9741 5.26682 39.67 4.96279C39.366 4.65876 38.9786 4.45171 38.5569 4.36783C38.1352 4.28394 37.6981 4.327 37.3009 4.49154C36.9036 4.65608 36.5641 4.93472 36.3252 5.29222C36.0864 5.64972 35.9589 6.07003 35.9589 6.5H31.6328Z" fill="white"/>
<path d="M35.9668 15.1667C35.9668 18.7566 33.0566 21.6667 29.4668 21.6667C25.8769 21.6667 22.9668 18.7566 22.9668 15.1667C22.9668 11.5769 25.8769 8.66675 29.4668 8.66675C33.0566 8.66675 35.9668 11.5769 35.9668 15.1667ZM27.2929 15.1667C27.2929 16.3674 28.2662 17.3407 29.4668 17.3407C30.6674 17.3407 31.6407 16.3674 31.6407 15.1667C31.6407 13.9661 30.6674 12.9928 29.4668 12.9928C28.2662 12.9928 27.2929 13.9661 27.2929 15.1667Z" fill="white"/>
<path d="M38.1328 21.6667C39.4184 21.6667 40.6751 21.2855 41.744 20.5713C42.8129 19.8571 43.6461 18.8419 44.138 17.6542C44.63 16.4665 44.7587 15.1595 44.5079 13.8987C44.2571 12.6378 43.638 11.4796 42.729 10.5706C41.82 9.66151 40.6618 9.04245 39.4009 8.79164C38.14 8.54084 36.8331 8.66956 35.6454 9.16153C34.4577 9.6535 33.4425 10.4866 32.7283 11.5555C32.014 12.6245 31.6328 13.8812 31.6328 15.1667L35.9589 15.1667C35.9589 14.7368 36.0864 14.3165 36.3252 13.959C36.5641 13.6015 36.9036 13.3228 37.3009 13.1583C37.6981 12.9937 38.1352 12.9507 38.5569 13.0346C38.9786 13.1185 39.366 13.3255 39.67 13.6295C39.9741 13.9336 40.1811 14.3209 40.265 14.7426C40.3489 15.1643 40.3058 15.6014 40.1413 15.9987C39.9767 16.3959 39.6981 16.7354 39.3406 16.9743C38.9831 17.2132 38.5628 17.3407 38.1328 17.3407L38.1328 21.6667Z" fill="white"/>
<rect x="35.9668" y="6.5" width="4.33333" height="4.33333" transform="rotate(90 35.9668 6.5)" fill="white"/>
</g>
<g clip-path="url(#clip2_3325_2295)">
<path d="M58.9336 15.1667C58.9336 16.0203 58.7655 16.8656 58.4388 17.6542C58.1122 18.4428 57.6334 19.1594 57.0298 19.7629C56.4262 20.3665 55.7097 20.8453 54.921 21.172C54.1324 21.4986 53.2872 21.6667 52.4336 21.6667C51.58 21.6667 50.7348 21.4986 49.9462 21.172C49.1575 20.8453 48.441 20.3665 47.8374 19.7629C47.2338 19.1594 46.755 18.4428 46.4284 17.6542C46.1017 16.8656 45.9336 16.0203 45.9336 15.1667L50.2596 15.1667C50.2596 15.4522 50.3159 15.7349 50.4251 15.9987C50.5344 16.2624 50.6945 16.5021 50.8964 16.704C51.0983 16.9058 51.3379 17.066 51.6017 17.1752C51.8654 17.2845 52.1481 17.3407 52.4336 17.3407C52.7191 17.3407 53.0018 17.2845 53.2655 17.1752C53.5293 17.066 53.7689 16.9058 53.9708 16.704C54.1727 16.5021 54.3328 16.2624 54.4421 15.9987C54.5513 15.7349 54.6075 15.4522 54.6075 15.1667H58.9336Z" fill="white"/>
<path d="M54.5996 15.1667C54.5996 16.0203 54.7677 16.8656 55.0944 17.6542C55.421 18.4428 55.8998 19.1594 56.5034 19.7629C57.107 20.3665 57.8236 20.8453 58.6122 21.172C59.4008 21.4986 60.246 21.6667 61.0996 21.6667C61.9532 21.6667 62.7984 21.4986 63.5871 21.172C64.3757 20.8453 65.0922 20.3665 65.6958 19.7629C66.2994 19.1594 66.7782 18.4428 67.1048 17.6542C67.4315 16.8656 67.5996 16.0203 67.5996 15.1667H63.2736C63.2736 15.4522 63.2173 15.7349 63.1081 15.9987C62.9988 16.2624 62.8387 16.5021 62.6368 16.704C62.435 16.9058 62.1953 17.066 61.9315 17.1752C61.6678 17.2845 61.3851 17.3407 61.0996 17.3407C60.8141 17.3407 60.5314 17.2845 60.2677 17.1752C60.0039 17.066 59.7643 16.9058 59.5624 16.704C59.3605 16.5021 59.2004 16.2624 59.0911 15.9987C58.9819 15.7349 58.9257 15.4522 58.9257 15.1667L54.5996 15.1667Z" fill="white"/>
<path d="M63.2666 6.5C63.2666 10.0899 60.3565 13 56.7666 13C53.1768 13 50.2666 10.0899 50.2666 6.5C50.2666 2.91015 53.1768 0 56.7666 0C60.3565 0 63.2666 2.91015 63.2666 6.5ZM54.5927 6.5C54.5927 7.70064 55.566 8.67395 56.7666 8.67395C57.9672 8.67395 58.9405 7.70064 58.9405 6.5C58.9405 5.29936 57.9672 4.32605 56.7666 4.32605C55.566 4.32605 54.5927 5.29936 54.5927 6.5Z" fill="white"/>
</g>
<defs>
<clipPath id="clip0_3325_2295">
<rect width="21.6667" height="26" fill="white"/>
</clipPath>
<clipPath id="clip1_3325_2295">
<rect width="21.6667" height="26" fill="white" transform="translate(22.9668)"/>
</clipPath>
<clipPath id="clip2_3325_2295">
<rect width="21.6667" height="26" fill="white" transform="translate(45.9336)"/>
</clipPath>
</defs>
</svg>
