<svg width="190" height="102" viewBox="0 0 190 102" fill="none" xmlns="http://www.w3.org/2000/svg">
<path d="M160.666 7.93327C163.15 5.49909 166.494 4.14349 169.972 4.16106C173.45 4.17862 176.78 5.56793 179.239 8.02708C181.699 10.4862 183.088 13.8165 183.105 17.2942C183.123 20.7719 181.767 24.1161 179.333 26.5999L172.356 33.5766C171.731 34.2015 170.884 34.5526 170 34.5526C169.116 34.5526 168.268 34.2015 167.643 33.5766L160.666 26.5999C158.191 24.1245 156.801 20.7672 156.801 17.2666C156.801 13.766 158.191 10.4087 160.666 7.93327Z" stroke="white" stroke-width="2.5" stroke-linejoin="round"/>
<path d="M170 22.2666C172.761 22.2666 175 20.028 175 17.2666C175 14.5052 172.761 12.2666 170 12.2666C167.239 12.2666 165 14.5052 165 17.2666C165 20.028 167.239 22.2666 170 22.2666Z" stroke="white" stroke-width="2.5" stroke-linecap="round" stroke-linejoin="round"/>
<path d="M119.212 76V64.8H123.612C124.39 64.8 125.041 64.9227 125.564 65.168C126.097 65.4133 126.497 65.7547 126.764 66.192C127.041 66.6187 127.18 67.1147 127.18 67.68C127.18 68.2453 127.057 68.72 126.812 69.104C126.566 69.488 126.241 69.7813 125.836 69.984C125.43 70.1867 124.993 70.3093 124.524 70.352L124.78 70.176C125.281 70.1867 125.729 70.32 126.124 70.576C126.529 70.832 126.849 71.168 127.084 71.584C127.318 71.9893 127.436 72.4427 127.436 72.944C127.436 73.5307 127.292 74.0587 127.004 74.528C126.716 74.9867 126.3 75.3493 125.756 75.616C125.212 75.872 124.545 76 123.756 76H119.212ZM121.132 74.432H123.484C124.113 74.432 124.604 74.2827 124.956 73.984C125.308 73.6853 125.484 73.2693 125.484 72.736C125.484 72.2027 125.302 71.7813 124.94 71.472C124.577 71.152 124.081 70.992 123.452 70.992H121.132V74.432ZM121.132 69.536H123.34C123.948 69.536 124.412 69.3973 124.732 69.12C125.052 68.832 125.212 68.4373 125.212 67.936C125.212 67.4453 125.052 67.0613 124.732 66.784C124.412 66.496 123.937 66.352 123.308 66.352H121.132V69.536ZM128.649 76L132.393 64.8H135.273L138.985 76H136.953L133.849 66.24H133.801L130.649 76H128.649ZM130.473 72.864L130.985 71.36H136.505L137.017 72.864H130.473ZM144.441 76.192C143.63 76.192 142.91 76.048 142.281 75.76C141.652 75.472 141.161 75.0613 140.809 74.528C140.457 73.9947 140.276 73.36 140.265 72.624H142.281C142.292 72.9973 142.382 73.3333 142.553 73.632C142.724 73.92 142.964 74.1493 143.273 74.32C143.593 74.4907 143.982 74.576 144.441 74.576C144.825 74.576 145.156 74.5227 145.433 74.416C145.721 74.2987 145.945 74.128 146.105 73.904C146.276 73.68 146.361 73.4027 146.361 73.072C146.361 72.72 146.276 72.432 146.105 72.208C145.934 71.9733 145.705 71.776 145.417 71.616C145.129 71.456 144.804 71.312 144.441 71.184C144.078 71.056 143.7 70.928 143.305 70.8C142.398 70.4907 141.71 70.096 141.241 69.616C140.782 69.1253 140.553 68.496 140.553 67.728C140.553 67.088 140.708 66.5387 141.017 66.08C141.326 65.6107 141.758 65.248 142.313 64.992C142.878 64.736 143.529 64.608 144.265 64.608C145.012 64.608 145.662 64.7413 146.217 65.008C146.782 65.2747 147.225 65.648 147.545 66.128C147.865 66.5973 148.036 67.1627 148.057 67.824H146.009C145.998 67.5147 145.918 67.2427 145.769 67.008C145.63 66.7627 145.428 66.5707 145.161 66.432C144.894 66.2827 144.574 66.208 144.201 66.208C143.892 66.1973 143.609 66.2453 143.353 66.352C143.108 66.448 142.91 66.5973 142.761 66.8C142.612 67.0027 142.537 67.264 142.537 67.584C142.537 67.872 142.601 68.112 142.729 68.304C142.868 68.496 143.054 68.6667 143.289 68.816C143.534 68.9547 143.828 69.088 144.169 69.216C144.521 69.344 144.905 69.4827 145.321 69.632C145.886 69.824 146.393 70.0533 146.841 70.32C147.3 70.576 147.662 70.912 147.929 71.328C148.206 71.7333 148.345 72.2613 148.345 72.912C148.345 73.488 148.196 74.0267 147.897 74.528C147.609 75.0293 147.172 75.4347 146.585 75.744C146.009 76.0427 145.294 76.192 144.441 76.192ZM150.288 76V64.8H157.52V66.352H152.208V69.568H157.04V71.088H152.208V74.448H157.52V76H150.288ZM159.553 76V64.8H163.313C164.614 64.8 165.692 65.0293 166.545 65.488C167.398 65.9467 168.028 66.5973 168.433 67.44C168.849 68.272 169.057 69.264 169.057 70.416C169.057 71.5467 168.849 72.5333 168.433 73.376C168.028 74.208 167.398 74.8533 166.545 75.312C165.702 75.7707 164.625 76 163.313 76H159.553ZM161.473 74.368H163.217C164.188 74.368 164.956 74.2133 165.521 73.904C166.086 73.584 166.486 73.1307 166.721 72.544C166.966 71.9467 167.089 71.2373 167.089 70.416C167.089 69.584 166.966 68.8747 166.721 68.288C166.486 67.6907 166.086 67.232 165.521 66.912C164.956 66.5813 164.188 66.416 163.217 66.416H161.473V74.368ZM175.13 76V64.8H177.05V76H175.13ZM179.317 76V64.8H181.637L186.581 73.36H186.629V64.8H188.549V76H186.229L181.285 67.456H181.237V76H179.317ZM29.5766 97V85.8H33.6406C34.5366 85.8 35.2726 85.9493 35.8486 86.248C36.4353 86.5467 36.8673 86.952 37.1446 87.464C37.4326 87.976 37.5766 88.5573 37.5766 89.208C37.5766 89.8267 37.438 90.392 37.1606 90.904C36.894 91.416 36.4673 91.8267 35.8806 92.136C35.294 92.4453 34.5473 92.6 33.6406 92.6H31.4966V97H29.5766ZM31.4966 91.032H33.5286C34.2753 91.032 34.8086 90.8667 35.1286 90.536C35.4593 90.2053 35.6246 89.7627 35.6246 89.208C35.6246 88.632 35.4593 88.184 35.1286 87.864C34.8086 87.5333 34.2753 87.368 33.5286 87.368H31.4966V91.032ZM44.7957 97.192C43.6971 97.192 42.7264 96.952 41.8837 96.472C41.0411 95.9813 40.3851 95.304 39.9157 94.44C39.4464 93.5653 39.2117 92.552 39.2117 91.4C39.2117 90.2587 39.4464 89.256 39.9157 88.392C40.3851 87.5173 41.0411 86.8347 41.8837 86.344C42.7264 85.8533 43.6971 85.608 44.7957 85.608C45.9051 85.608 46.8811 85.8533 47.7237 86.344C48.5664 86.8347 49.2224 87.5173 49.6917 88.392C50.1611 89.256 50.3957 90.2587 50.3957 91.4C50.3957 92.552 50.1611 93.5653 49.6917 94.44C49.2224 95.304 48.5664 95.9813 47.7237 96.472C46.8811 96.952 45.9051 97.192 44.7957 97.192ZM44.7957 95.464C45.5317 95.464 46.1717 95.304 46.7157 94.984C47.2597 94.6533 47.6811 94.184 47.9797 93.576C48.2784 92.968 48.4277 92.2427 48.4277 91.4C48.4277 90.5573 48.2784 89.832 47.9797 89.224C47.6811 88.616 47.2597 88.152 46.7157 87.832C46.1717 87.5013 45.5317 87.336 44.7957 87.336C44.0704 87.336 43.4357 87.5013 42.8917 87.832C42.3477 88.152 41.9211 88.616 41.6117 89.224C41.3131 89.832 41.1637 90.5573 41.1637 91.4C41.1637 92.2427 41.3131 92.968 41.6117 93.576C41.9211 94.184 42.3477 94.6533 42.8917 94.984C43.4357 95.304 44.0704 95.464 44.7957 95.464ZM52.4504 97V85.8H54.7704L59.7144 94.36H59.7624V85.8H61.6824V97H59.3624L54.4184 88.456H54.3704V97H52.4504ZM63.9497 97V85.8H67.7097C69.0111 85.8 70.0884 86.0293 70.9417 86.488C71.7951 86.9467 72.4244 87.5973 72.8297 88.44C73.2457 89.272 73.4537 90.264 73.4537 91.416C73.4537 92.5467 73.2457 93.5333 72.8297 94.376C72.4244 95.208 71.7951 95.8533 70.9417 96.312C70.0991 96.7707 69.0217 97 67.7097 97H63.9497ZM65.8697 95.368H67.6137C68.5844 95.368 69.3524 95.2133 69.9177 94.904C70.4831 94.584 70.8831 94.1307 71.1177 93.544C71.3631 92.9467 71.4857 92.2373 71.4857 91.416C71.4857 90.584 71.3631 89.8747 71.1177 89.288C70.8831 88.6907 70.4831 88.232 69.9177 87.912C69.3524 87.5813 68.5844 87.416 67.6137 87.416H65.8697V95.368ZM75.5116 97V85.8H77.4316V97H75.5116ZM84.8985 97.192C83.7785 97.192 82.8132 96.952 82.0025 96.472C81.1918 95.9813 80.5678 95.304 80.1305 94.44C79.7038 93.5653 79.4905 92.5573 79.4905 91.416C79.4905 90.264 79.7092 89.256 80.1465 88.392C80.5838 87.5173 81.2025 86.8347 82.0025 86.344C82.8132 85.8533 83.7785 85.608 84.8985 85.608C86.2318 85.608 87.3198 85.9387 88.1625 86.6C89.0158 87.2507 89.5545 88.1733 89.7785 89.368H87.6665C87.5172 88.7387 87.2078 88.2427 86.7385 87.88C86.2798 87.5173 85.6612 87.336 84.8825 87.336C84.1678 87.336 83.5545 87.5013 83.0425 87.832C82.5305 88.1627 82.1358 88.632 81.8585 89.24C81.5812 89.848 81.4425 90.5733 81.4425 91.416C81.4425 92.248 81.5812 92.968 81.8585 93.576C82.1358 94.184 82.5305 94.6533 83.0425 94.984C83.5545 95.304 84.1678 95.464 84.8825 95.464C85.6612 95.464 86.2852 95.2933 86.7545 94.952C87.2238 94.6107 87.5332 94.1467 87.6825 93.56H89.7785C89.5652 94.6907 89.0318 95.5813 88.1785 96.232C87.3358 96.872 86.2425 97.192 84.8985 97.192ZM98.9265 97V85.8H100.846V97H98.9265ZM91.8385 97V85.8H93.7585V97H91.8385ZM93.4705 92.072V90.504H99.2785V92.072H93.4705ZM103.119 97V85.8H110.351V87.352H105.039V90.568H109.871V92.088H105.039V95.448H110.351V97H103.119ZM112.384 97V85.8H116.4C117.296 85.8 118.032 85.9547 118.608 86.264C119.184 86.5627 119.611 86.968 119.888 87.48C120.176 87.9813 120.32 88.552 120.32 89.192C120.32 89.7893 120.181 90.344 119.904 90.856C119.627 91.368 119.195 91.7787 118.608 92.088C118.032 92.3973 117.285 92.552 116.368 92.552H114.304V97H112.384ZM118.224 97L115.872 92.056H117.968L120.432 97H118.224ZM114.304 91.128H116.288C116.992 91.128 117.509 90.9573 117.84 90.616C118.181 90.264 118.352 89.8053 118.352 89.24C118.352 88.6853 118.187 88.2427 117.856 87.912C117.536 87.5707 117.008 87.4 116.272 87.4H114.304V91.128ZM122.258 97V85.8H126.274C127.17 85.8 127.906 85.9547 128.482 86.264C129.058 86.5627 129.485 86.968 129.762 87.48C130.05 87.9813 130.194 88.552 130.194 89.192C130.194 89.7893 130.056 90.344 129.778 90.856C129.501 91.368 129.069 91.7787 128.482 92.088C127.906 92.3973 127.16 92.552 126.242 92.552H124.178V97H122.258ZM128.098 97L125.746 92.056H127.842L130.306 97H128.098ZM124.178 91.128H126.162C126.866 91.128 127.384 90.9573 127.714 90.616C128.056 90.264 128.226 89.8053 128.226 89.24C128.226 88.6853 128.061 88.2427 127.73 87.912C127.41 87.5707 126.882 87.4 126.146 87.4H124.178V91.128ZM134.767 97V93.064L131.039 85.8H133.199L135.807 91.304H135.711L138.287 85.8H140.431L136.687 93.064V97H134.767ZM140.149 98.968L141.061 95.064H142.933L141.413 98.968H140.149ZM148.725 97V85.8H150.645V97H148.725ZM152.912 97V85.8H155.232L160.176 94.36H160.224V85.8H162.144V97H159.824L154.88 88.456H154.832V97H152.912ZM164.411 97V85.8H168.171C169.472 85.8 170.55 86.0293 171.403 86.488C172.256 86.9467 172.886 87.5973 173.291 88.44C173.707 89.272 173.915 90.264 173.915 91.416C173.915 92.5467 173.707 93.5333 173.291 94.376C172.886 95.208 172.256 95.8533 171.403 96.312C170.56 96.7707 169.483 97 168.171 97H164.411ZM166.331 95.368H168.075C169.046 95.368 169.814 95.2133 170.379 94.904C170.944 94.584 171.344 94.1307 171.579 93.544C171.824 92.9467 171.947 92.2373 171.947 91.416C171.947 90.584 171.824 89.8747 171.579 89.288C171.344 88.6907 170.944 88.232 170.379 87.912C169.814 87.5813 169.046 87.416 168.075 87.416H166.331V95.368ZM175.973 97V85.8H177.893V97H175.973ZM179.504 97L183.248 85.8H186.128L189.84 97H187.808L184.704 87.24H184.656L181.504 97H179.504ZM181.328 93.864L181.84 92.36H187.36L187.872 93.864H181.328Z" fill="white"/>
</svg>
