<svg width="140" height="21" viewBox="0 0 140 21" fill="none" xmlns="http://www.w3.org/2000/svg">
<rect x="1" y="1.5" width="18" height="18" rx="9" fill="white" fill-opacity="0.1"/>
<rect x="1" y="1.5" width="18" height="18" rx="9" stroke="#F8FF2C" stroke-width="0.5"/>
<circle cx="10" cy="10.5" r="5" fill="#F8FF2C"/>
<path d="M36.8616 11.9688C36.8564 12.375 36.8199 12.7865 36.7522 13.2031C36.6897 13.6146 36.5907 14.013 36.4553 14.3984C36.3199 14.7839 36.1454 15.1432 35.9319 15.4766C35.7235 15.8099 35.4735 16.1016 35.1819 16.3516C34.8902 16.6016 34.5543 16.7995 34.1741 16.9453C33.7991 17.0859 33.3772 17.1562 32.9084 17.1562C32.4397 17.1562 32.0152 17.0859 31.635 16.9453C31.26 16.7995 30.9267 16.6016 30.635 16.3516C30.3433 16.1016 30.0907 15.8099 29.8772 15.4766C29.6636 15.138 29.4892 14.776 29.3537 14.3906C29.2131 14.0052 29.109 13.6068 29.0412 13.1953C28.9735 12.7839 28.9371 12.375 28.9319 11.9688V10.6719C28.9371 10.2656 28.9709 9.85677 29.0334 9.44531C29.1011 9.02865 29.2053 8.6276 29.3459 8.24219C29.4814 7.85677 29.6532 7.4974 29.8616 7.16406C30.0751 6.82552 30.3277 6.52865 30.6194 6.27344C30.911 6.02344 31.2444 5.82812 31.6194 5.6875C31.9996 5.54167 32.4241 5.46875 32.8928 5.46875C33.3616 5.46875 33.786 5.54167 34.1662 5.6875C34.5465 5.82812 34.8824 6.02344 35.1741 6.27344C35.4657 6.52344 35.7157 6.81771 35.9241 7.15625C36.1376 7.48958 36.3147 7.84896 36.4553 8.23438C36.5907 8.61979 36.6897 9.02083 36.7522 9.4375C36.8199 9.85417 36.8564 10.2656 36.8616 10.6719V11.9688ZM35.4319 10.6562C35.4267 10.3854 35.4084 10.1042 35.3772 9.8125C35.3459 9.51562 35.2939 9.22135 35.2209 8.92969C35.1428 8.64323 35.0412 8.36979 34.9162 8.10938C34.7912 7.84375 34.635 7.60938 34.4475 7.40625C34.26 7.20833 34.0386 7.05208 33.7834 6.9375C33.5282 6.81771 33.2314 6.75781 32.8928 6.75781C32.5595 6.75781 32.2652 6.81771 32.01 6.9375C31.7548 7.05729 31.5334 7.21615 31.3459 7.41406C31.1584 7.61719 31.0022 7.85156 30.8772 8.11719C30.7522 8.3776 30.6532 8.65104 30.5803 8.9375C30.5022 9.22917 30.4449 9.52344 30.4084 9.82031C30.3772 10.112 30.359 10.3906 30.3537 10.6562V11.9688C30.359 12.2344 30.3772 12.5156 30.4084 12.8125C30.4449 13.1094 30.5022 13.401 30.5803 13.6875C30.6584 13.9792 30.76 14.2578 30.885 14.5234C31.01 14.7891 31.1662 15.0208 31.3537 15.2188C31.5412 15.4219 31.7626 15.5833 32.0178 15.7031C32.273 15.8229 32.5699 15.8828 32.9084 15.8828C33.247 15.8828 33.5439 15.8229 33.7991 15.7031C34.0595 15.5833 34.2834 15.4219 34.4709 15.2188C34.6532 15.0208 34.8043 14.7917 34.9241 14.5312C35.0491 14.2656 35.1506 13.987 35.2287 13.6953C35.3017 13.4089 35.3511 13.1172 35.3772 12.8203C35.4084 12.5234 35.4267 12.2396 35.4319 11.9688V10.6562ZM40.3306 12.4375V17H38.8853V5.625H42.5728C43.0832 5.63542 43.565 5.71615 44.0181 5.86719C44.4765 6.01823 44.8775 6.23698 45.2212 6.52344C45.565 6.8099 45.8358 7.16406 46.0337 7.58594C46.2369 8.00781 46.3384 8.49219 46.3384 9.03906C46.3384 9.58594 46.2369 10.0703 46.0337 10.4922C45.8358 10.9089 45.565 11.2604 45.2212 11.5469C44.8775 11.8333 44.4765 12.0521 44.0181 12.2031C43.565 12.3542 43.0832 12.4323 42.5728 12.4375H40.3306ZM40.3306 11.25H42.5728C42.9061 11.2448 43.2134 11.1927 43.4947 11.0938C43.7759 10.9896 44.0207 10.8438 44.2291 10.6562C44.4374 10.4688 44.5989 10.2422 44.7134 9.97656C44.8332 9.70573 44.8931 9.39844 44.8931 9.05469C44.8931 8.71094 44.8332 8.40104 44.7134 8.125C44.5989 7.84896 44.44 7.61458 44.2369 7.42188C44.0285 7.22917 43.7811 7.08073 43.4947 6.97656C43.2134 6.8724 42.9061 6.81771 42.5728 6.8125H40.3306V11.25ZM54.2997 11.7422H49.5497V15.7734H55.0887V17H48.1044V5.625H55.0184V6.85938H49.5497V10.5156H54.2997V11.7422ZM64.4562 17H62.9875L58.5734 8.5L58.55 17H57.0891V5.625H58.5578L62.9719 14.1094L62.9953 5.625H64.4562V17ZM83.5819 6.85938H80.0662V17H78.66V6.85938H75.1444V5.625H83.5819V6.85938ZM92.5978 11.9688C92.5926 12.375 92.5561 12.7865 92.4884 13.2031C92.4259 13.6146 92.327 14.013 92.1916 14.3984C92.0561 14.7839 91.8817 15.1432 91.6681 15.4766C91.4598 15.8099 91.2098 16.1016 90.9181 16.3516C90.6265 16.6016 90.2905 16.7995 89.9103 16.9453C89.5353 17.0859 89.1134 17.1562 88.6447 17.1562C88.1759 17.1562 87.7515 17.0859 87.3713 16.9453C86.9963 16.7995 86.6629 16.6016 86.3713 16.3516C86.0796 16.1016 85.827 15.8099 85.6134 15.4766C85.3999 15.138 85.2254 14.776 85.09 14.3906C84.9494 14.0052 84.8452 13.6068 84.7775 13.1953C84.7098 12.7839 84.6733 12.375 84.6681 11.9688V10.6719C84.6733 10.2656 84.7072 9.85677 84.7697 9.44531C84.8374 9.02865 84.9416 8.6276 85.0822 8.24219C85.2176 7.85677 85.3895 7.4974 85.5978 7.16406C85.8114 6.82552 86.064 6.52865 86.3556 6.27344C86.6473 6.02344 86.9806 5.82812 87.3556 5.6875C87.7358 5.54167 88.1603 5.46875 88.6291 5.46875C89.0978 5.46875 89.5223 5.54167 89.9025 5.6875C90.2827 5.82812 90.6186 6.02344 90.9103 6.27344C91.202 6.52344 91.452 6.81771 91.6603 7.15625C91.8739 7.48958 92.0509 7.84896 92.1916 8.23438C92.327 8.61979 92.4259 9.02083 92.4884 9.4375C92.5561 9.85417 92.5926 10.2656 92.5978 10.6719V11.9688ZM91.1681 10.6562C91.1629 10.3854 91.1447 10.1042 91.1134 9.8125C91.0822 9.51562 91.0301 9.22135 90.9572 8.92969C90.8791 8.64323 90.7775 8.36979 90.6525 8.10938C90.5275 7.84375 90.3713 7.60938 90.1838 7.40625C89.9963 7.20833 89.7749 7.05208 89.5197 6.9375C89.2645 6.81771 88.9676 6.75781 88.6291 6.75781C88.2957 6.75781 88.0015 6.81771 87.7463 6.9375C87.491 7.05729 87.2697 7.21615 87.0822 7.41406C86.8947 7.61719 86.7384 7.85156 86.6134 8.11719C86.4884 8.3776 86.3895 8.65104 86.3166 8.9375C86.2384 9.22917 86.1811 9.52344 86.1447 9.82031C86.1134 10.112 86.0952 10.3906 86.09 10.6562V11.9688C86.0952 12.2344 86.1134 12.5156 86.1447 12.8125C86.1811 13.1094 86.2384 13.401 86.3166 13.6875C86.3947 13.9792 86.4963 14.2578 86.6213 14.5234C86.7463 14.7891 86.9025 15.0208 87.09 15.2188C87.2775 15.4219 87.4989 15.5833 87.7541 15.7031C88.0093 15.8229 88.3061 15.8828 88.6447 15.8828C88.9832 15.8828 89.2801 15.8229 89.5353 15.7031C89.7957 15.5833 90.0197 15.4219 90.2072 15.2188C90.3895 15.0208 90.5405 14.7917 90.6603 14.5312C90.7853 14.2656 90.8869 13.987 90.965 13.6953C91.0379 13.4089 91.0874 13.1172 91.1134 12.8203C91.1447 12.5234 91.1629 12.2396 91.1681 11.9688V10.6562ZM104.372 17L102.989 5.625H104.364L105.184 13.4688L105.231 13.9219L105.317 13.4531L106.692 5.625H107.95L109.333 13.4609L109.419 13.9219L109.466 13.4531L110.286 5.625H111.653L110.27 17H108.794L107.411 8.90625L107.333 8.42969L107.247 8.91406L105.856 17H104.372ZM120.466 11.9688C120.461 12.375 120.424 12.7865 120.357 13.2031C120.294 13.6146 120.195 14.013 120.06 14.3984C119.924 14.7839 119.75 15.1432 119.536 15.4766C119.328 15.8099 119.078 16.1016 118.786 16.3516C118.495 16.6016 118.159 16.7995 117.778 16.9453C117.403 17.0859 116.982 17.1562 116.513 17.1562C116.044 17.1562 115.62 17.0859 115.239 16.9453C114.864 16.7995 114.531 16.6016 114.239 16.3516C113.948 16.1016 113.695 15.8099 113.482 15.4766C113.268 15.138 113.094 14.776 112.958 14.3906C112.818 14.0052 112.713 13.6068 112.646 13.1953C112.578 12.7839 112.541 12.375 112.536 11.9688V10.6719C112.541 10.2656 112.575 9.85677 112.638 9.44531C112.706 9.02865 112.81 8.6276 112.95 8.24219C113.086 7.85677 113.258 7.4974 113.466 7.16406C113.679 6.82552 113.932 6.52865 114.224 6.27344C114.515 6.02344 114.849 5.82812 115.224 5.6875C115.604 5.54167 116.028 5.46875 116.497 5.46875C116.966 5.46875 117.39 5.54167 117.771 5.6875C118.151 5.82812 118.487 6.02344 118.778 6.27344C119.07 6.52344 119.32 6.81771 119.528 7.15625C119.742 7.48958 119.919 7.84896 120.06 8.23438C120.195 8.61979 120.294 9.02083 120.357 9.4375C120.424 9.85417 120.461 10.2656 120.466 10.6719V11.9688ZM119.036 10.6562C119.031 10.3854 119.013 10.1042 118.982 9.8125C118.95 9.51562 118.898 9.22135 118.825 8.92969C118.747 8.64323 118.646 8.36979 118.521 8.10938C118.396 7.84375 118.239 7.60938 118.052 7.40625C117.864 7.20833 117.643 7.05208 117.388 6.9375C117.133 6.81771 116.836 6.75781 116.497 6.75781C116.164 6.75781 115.87 6.81771 115.614 6.9375C115.359 7.05729 115.138 7.21615 114.95 7.41406C114.763 7.61719 114.607 7.85156 114.482 8.11719C114.357 8.3776 114.258 8.65104 114.185 8.9375C114.107 9.22917 114.049 9.52344 114.013 9.82031C113.982 10.112 113.963 10.3906 113.958 10.6562V11.9688C113.963 12.2344 113.982 12.5156 114.013 12.8125C114.049 13.1094 114.107 13.401 114.185 13.6875C114.263 13.9792 114.364 14.2578 114.489 14.5234C114.614 14.7891 114.771 15.0208 114.958 15.2188C115.146 15.4219 115.367 15.5833 115.622 15.7031C115.877 15.8229 116.174 15.8828 116.513 15.8828C116.851 15.8828 117.148 15.8229 117.403 15.7031C117.664 15.5833 117.888 15.4219 118.075 15.2188C118.258 15.0208 118.409 14.7917 118.528 14.5312C118.653 14.2656 118.755 13.987 118.833 13.6953C118.906 13.4089 118.956 13.1172 118.982 12.8203C119.013 12.5234 119.031 12.2396 119.036 11.9688V10.6562ZM126.122 12.3594H123.849V17H122.412V5.625H125.747C126.279 5.63542 126.779 5.71094 127.247 5.85156C127.716 5.99219 128.128 6.20312 128.482 6.48438C128.831 6.76562 129.104 7.11979 129.302 7.54688C129.505 7.96875 129.607 8.46615 129.607 9.03906C129.607 9.40885 129.552 9.7474 129.443 10.0547C129.339 10.362 129.193 10.6406 129.005 10.8906C128.818 11.1406 128.594 11.362 128.333 11.5547C128.073 11.7474 127.787 11.9115 127.474 12.0469L129.888 16.9062L129.88 17H128.357L126.122 12.3594ZM123.849 11.1719H125.787C126.109 11.1667 126.414 11.1172 126.701 11.0234C126.987 10.9245 127.24 10.7839 127.458 10.6016C127.672 10.4193 127.841 10.1979 127.966 9.9375C128.091 9.67188 128.154 9.36719 128.154 9.02344C128.154 8.65885 128.094 8.34115 127.974 8.07031C127.854 7.79427 127.688 7.5625 127.474 7.375C127.261 7.19271 127.005 7.05469 126.708 6.96094C126.417 6.86719 126.096 6.81771 125.747 6.8125H123.849V11.1719ZM134.373 11.7188L133.107 13.1562V17H131.631V5.625H133.107V11.1797L134.209 9.80469L137.545 5.625H139.303L135.326 10.6016L139.568 17H137.81L134.373 11.7188Z" fill="#F8FF2C"/>
</svg>
