<svg width="192" height="24" viewBox="0 0 192 24" fill="none" xmlns="http://www.w3.org/2000/svg">
<path d="M175.623 17.6853C174.608 14.791 174.003 6.56686 180.707 0.883612C183.366 -1.3718 185.595 1.40183 187.423 1.40183C189.708 1.40183 191.619 5.05584 191.619 6.63452C191.619 8.2132 193.143 12.9492 190.096 19.264C188.572 22.4213 185.525 24 181.717 24C178.67 24 176.132 18.7388 175.623 17.6856L175.623 17.6853Z" fill="#050400"/>
<path d="M0.62325 17.6853C-0.392371 14.791 -0.996573 6.56686 5.70652 0.883612C8.36648 -1.3718 10.5948 1.40183 12.4229 1.40183C14.7081 1.40183 16.6191 5.05584 16.6191 6.63452C16.6191 8.2132 18.1426 12.9492 15.0957 19.264C13.5723 22.4213 10.5253 24 6.71684 24C3.67038 24 1.1316 18.7388 0.623397 17.6856L0.62325 17.6853Z" fill="#050400"/>
</svg>
