<svg width="110" height="110" viewBox="0 0 110 110" fill="none" xmlns="http://www.w3.org/2000/svg">
<g filter="url(#filter0_ii_3365_1901)">
<g clip-path="url(#clip0_3365_1901)">
<rect width="110" height="110" rx="26" fill="white"/>
<g filter="url(#filter1_d_3365_1901)">
<path d="M52.323 83.7106C52.8851 84.762 53.5405 85.5906 54.3383 86.3295C55.2971 87.2177 56.1419 87.0787 56.9906 86.2098C58.4542 84.7112 59.2783 82.8319 59.9908 80.9243C61.9271 75.7401 62.8985 70.3424 63.4723 64.8512C63.849 61.2467 63.8987 57.6328 64.0614 54.0209C64.1318 52.4573 65.2441 51.4186 66.7205 51.4458C68.2105 51.4733 69.4294 52.5193 69.4428 53.9976C69.5369 64.3587 68.5428 74.5575 64.6131 84.2742C63.6934 86.5482 62.5596 88.7211 60.7196 90.4309C57.4287 93.4892 53.5971 93.4755 50.3554 90.3823C47.8346 87.9768 46.5706 84.8454 45.4917 81.6529C44.7597 79.4869 44.281 77.2348 43.703 75.0177C43.6138 74.6757 43.573 74.3155 43.5553 73.9614C43.4642 72.1383 44.208 71.0724 45.734 70.8116C47.2825 70.5469 48.548 71.4185 48.9121 73.181C49.5523 76.2808 50.3108 79.3379 51.5981 82.2415C51.8041 82.7061 52.0486 83.1535 52.323 83.7106Z" fill="black"/>
<path d="M38.5932 48.5702C35.5157 49.3435 32.5083 49.9178 29.6781 51.1257C28.3132 51.7081 26.9877 52.3568 25.8018 53.2545C24.0288 54.5966 24.0216 55.5021 25.7707 56.8205C26.8344 57.6223 28.0094 58.2304 29.2373 58.7445C34.3223 60.8732 39.6927 61.7184 45.1241 62.2906C48.4681 62.6429 51.8242 62.7962 55.1833 62.9202C56.9922 62.987 58.1258 64.1202 58.1427 65.7614C58.1604 67.4824 57.1125 68.5908 55.2356 68.5759C46.337 68.5052 37.55 67.5807 29.0465 64.7921C26.4688 63.9467 24.0485 62.7351 21.9342 60.9947C17.9377 57.7051 17.8154 52.8328 21.6796 49.3737C25.2954 46.1368 29.8119 44.8292 34.3553 43.6103C35.1905 43.3863 36.0389 43.1902 36.8935 43.0646C38.6674 42.8041 39.8644 43.5116 40.3844 45.0575C40.8652 46.4868 40.3201 47.6121 38.5932 48.5702Z" fill="black"/>
<path d="M80.5751 65.4029C78.2973 66.0101 76.1777 66.7805 73.9039 66.8219C72.1697 66.8534 71.1247 66.0565 70.8596 64.486C70.6196 63.0639 71.5289 61.7242 73.0933 61.3457C76.5599 60.5069 80.055 59.7513 83.2279 58.0372C84.5952 57.2985 86.5113 56.6797 86.4519 54.9248C86.3965 53.2873 84.51 52.72 83.1744 52.0342C78.6209 49.6961 73.672 48.7611 68.6562 48.1281C64.5157 47.6055 60.3587 47.2736 56.1829 47.1622C54.2672 47.1112 53.0369 45.9056 53.0659 44.2914C53.0947 42.6948 54.2485 41.5087 56.1112 41.5266C65.6751 41.6184 75.146 42.3728 84.1196 46.0866C86.5393 47.088 88.7652 48.414 90.4579 50.4905C92.7798 53.3387 92.6905 57.1029 90.2367 59.8439C87.6555 62.7272 84.2419 64.1611 80.5751 65.4029Z" fill="black"/>
<path d="M66.9937 31.7696C67.3213 33.1272 67.6367 34.359 67.9301 35.596C68.3521 37.3749 67.568 38.8767 66.0695 39.1907C64.2531 39.5712 62.984 38.6849 62.5284 36.7506C61.8867 34.0262 61.2315 31.3057 60.1787 28.6993C59.5651 27.18 58.8567 25.7123 57.8475 24.4167C56.4173 22.5804 55.2084 22.5627 53.7875 24.3864C52.263 26.3431 51.3538 28.6231 50.5946 30.9523C48.8163 36.4085 47.9947 42.0339 47.6913 47.7517C47.5862 49.734 47.3954 51.7087 47.4033 53.6998C47.4097 55.2979 46.2316 56.3644 44.6671 56.3535C43.1965 56.3433 42.1194 55.3057 42.0313 53.7436C41.8498 50.5291 42.1363 47.3208 42.4357 44.1345C43.0224 37.8898 44.0981 31.7304 46.605 25.9115C47.3736 24.1276 48.2506 22.4097 49.416 20.8441C52.9516 16.0942 58.5398 16.1037 62.1329 20.8434C64.5841 24.0769 65.8469 27.8268 66.9937 31.7696Z" fill="black"/>
</g>
</g>
</g>
<defs>
<filter id="filter0_ii_3365_1901" x="0" y="0" width="110" height="120.371" filterUnits="userSpaceOnUse" color-interpolation-filters="sRGB">
<feFlood flood-opacity="0" result="BackgroundImageFix"/>
<feBlend mode="normal" in="SourceGraphic" in2="BackgroundImageFix" result="shape"/>
<feColorMatrix in="SourceAlpha" type="matrix" values="0 0 0 0 0 0 0 0 0 0 0 0 0 0 0 0 0 0 127 0" result="hardAlpha"/>
<feMorphology radius="15.7143" operator="dilate" in="SourceAlpha" result="effect1_innerShadow_3365_1901"/>
<feOffset dy="70.7143"/>
<feGaussianBlur stdDeviation="13.0429"/>
<feComposite in2="hardAlpha" operator="arithmetic" k2="-1" k3="1"/>
<feColorMatrix type="matrix" values="0 0 0 0 1 0 0 0 0 1 0 0 0 0 1 0 0 0 0.03 0"/>
<feBlend mode="normal" in2="shape" result="effect1_innerShadow_3365_1901"/>
<feColorMatrix in="SourceAlpha" type="matrix" values="0 0 0 0 0 0 0 0 0 0 0 0 0 0 0 0 0 0 127 0" result="hardAlpha"/>
<feOffset dy="1.57143"/>
<feGaussianBlur stdDeviation="1.72857"/>
<feComposite in2="hardAlpha" operator="arithmetic" k2="-1" k3="1"/>
<feColorMatrix type="matrix" values="0 0 0 0 1 0 0 0 0 1 0 0 0 0 1 0 0 0 0.25 0"/>
<feBlend mode="normal" in2="effect1_innerShadow_3365_1901" result="effect2_innerShadow_3365_1901"/>
</filter>
<filter id="filter1_d_3365_1901" x="3.45742" y="5.88516" width="104.083" height="106.229" filterUnits="userSpaceOnUse" color-interpolation-filters="sRGB">
<feFlood flood-opacity="0" result="BackgroundImageFix"/>
<feColorMatrix in="SourceAlpha" type="matrix" values="0 0 0 0 0 0 0 0 0 0 0 0 0 0 0 0 0 0 127 0" result="hardAlpha"/>
<feOffset dy="4"/>
<feGaussianBlur stdDeviation="7.7"/>
<feComposite in2="hardAlpha" operator="out"/>
<feColorMatrix type="matrix" values="0 0 0 0 0 0 0 0 0 0 0 0 0 0 0 0 0 0 0.25 0"/>
<feBlend mode="normal" in2="BackgroundImageFix" result="effect1_dropShadow_3365_1901"/>
<feBlend mode="normal" in="SourceGraphic" in2="effect1_dropShadow_3365_1901" result="shape"/>
</filter>
<clipPath id="clip0_3365_1901">
<rect width="110" height="110" rx="26" fill="white"/>
</clipPath>
</defs>
</svg>
