<svg width="110" height="110" viewBox="0 0 110 110" fill="none" xmlns="http://www.w3.org/2000/svg">
<g filter="url(#filter0_ii_3365_1880)">
<g clip-path="url(#clip0_3365_1880)">
<rect width="110" height="110" rx="26" fill="#1A1A1A"/>
<g opacity="0.6" filter="url(#filter1_f_3365_1880)">
<path d="M29.8574 29.8566C29.8574 22.9135 35.4858 17.2852 42.4289 17.2852H55.0003V42.4281H42.4289C35.4858 42.4281 29.8574 36.7995 29.8574 29.8566Z" fill="#F24E1E"/>
<path d="M55.0005 17.2852H67.5719C74.515 17.2852 80.1433 22.9135 80.1433 29.8566C80.1433 36.7995 74.515 42.4281 67.5719 42.4281H55.0005V17.2852Z" fill="#FF7262"/>
<path d="M29.8574 54.9992C29.8574 48.0561 35.4858 42.4277 42.4289 42.4277H55.0003V67.5706H42.4289C35.4858 67.5706 29.8574 61.942 29.8574 54.9992Z" fill="#A259FF"/>
<path d="M80.1433 54.9992C80.1433 61.942 74.515 67.5706 67.5719 67.5706C60.6288 67.5706 55.0005 61.942 55.0005 54.9992C55.0005 48.0561 60.6288 42.4277 67.5719 42.4277C74.515 42.4277 80.1433 48.0561 80.1433 54.9992Z" fill="#1ABCFE"/>
<path d="M42.4289 92.7141C49.372 92.7141 55.0003 87.0858 55.0003 80.1427V67.5713H42.4289C35.4858 67.5713 29.8574 73.1999 29.8574 80.1427C29.8574 87.0858 35.4858 92.7141 42.4289 92.7141Z" fill="#0ACF83"/>
</g>
<path d="M29.8574 29.8566C29.8574 22.9135 35.4858 17.2852 42.4289 17.2852H55.0003V42.4281H42.4289C35.4858 42.4281 29.8574 36.7995 29.8574 29.8566Z" fill="#F24E1E"/>
<path d="M55.0005 17.2852H67.5719C74.515 17.2852 80.1433 22.9135 80.1433 29.8566C80.1433 36.7995 74.515 42.4281 67.5719 42.4281H55.0005V17.2852Z" fill="#FF7262"/>
<path d="M29.8574 54.9992C29.8574 48.0561 35.4858 42.4277 42.4289 42.4277H55.0003V67.5706H42.4289C35.4858 67.5706 29.8574 61.942 29.8574 54.9992Z" fill="#A259FF"/>
<path d="M80.1433 54.9992C80.1433 61.942 74.515 67.5706 67.5719 67.5706C60.6288 67.5706 55.0005 61.942 55.0005 54.9992C55.0005 48.0561 60.6288 42.4277 67.5719 42.4277C74.515 42.4277 80.1433 48.0561 80.1433 54.9992Z" fill="#1ABCFE"/>
<path d="M42.4289 92.7141C49.372 92.7141 55.0003 87.0858 55.0003 80.1427V67.5713H42.4289C35.4858 67.5713 29.8574 73.1999 29.8574 80.1427C29.8574 87.0858 35.4858 92.7141 42.4289 92.7141Z" fill="#0ACF83"/>
</g>
</g>
<defs>
<filter id="filter0_ii_3365_1880" x="0" y="0" width="110" height="120.371" filterUnits="userSpaceOnUse" color-interpolation-filters="sRGB">
<feFlood flood-opacity="0" result="BackgroundImageFix"/>
<feBlend mode="normal" in="SourceGraphic" in2="BackgroundImageFix" result="shape"/>
<feColorMatrix in="SourceAlpha" type="matrix" values="0 0 0 0 0 0 0 0 0 0 0 0 0 0 0 0 0 0 127 0" result="hardAlpha"/>
<feMorphology radius="15.7143" operator="dilate" in="SourceAlpha" result="effect1_innerShadow_3365_1880"/>
<feOffset dy="70.7143"/>
<feGaussianBlur stdDeviation="13.0429"/>
<feComposite in2="hardAlpha" operator="arithmetic" k2="-1" k3="1"/>
<feColorMatrix type="matrix" values="0 0 0 0 1 0 0 0 0 1 0 0 0 0 1 0 0 0 0.03 0"/>
<feBlend mode="normal" in2="shape" result="effect1_innerShadow_3365_1880"/>
<feColorMatrix in="SourceAlpha" type="matrix" values="0 0 0 0 0 0 0 0 0 0 0 0 0 0 0 0 0 0 127 0" result="hardAlpha"/>
<feOffset dy="1.57143"/>
<feGaussianBlur stdDeviation="1.72857"/>
<feComposite in2="hardAlpha" operator="arithmetic" k2="-1" k3="1"/>
<feColorMatrix type="matrix" values="0 0 0 0 1 0 0 0 0 1 0 0 0 0 1 0 0 0 0.25 0"/>
<feBlend mode="normal" in2="effect1_innerShadow_3365_1880" result="effect2_innerShadow_3365_1880"/>
</filter>
<filter id="filter1_f_3365_1880" x="8.95742" y="-3.61484" width="92.0861" height="117.229" filterUnits="userSpaceOnUse" color-interpolation-filters="sRGB">
<feFlood flood-opacity="0" result="BackgroundImageFix"/>
<feBlend mode="normal" in="SourceGraphic" in2="BackgroundImageFix" result="shape"/>
<feGaussianBlur stdDeviation="10.45" result="effect1_foregroundBlur_3365_1880"/>
</filter>
<clipPath id="clip0_3365_1880">
<rect width="110" height="110" rx="26" fill="white"/>
</clipPath>
</defs>
</svg>
