<svg width="110" height="110" viewBox="0 0 110 110" fill="none" xmlns="http://www.w3.org/2000/svg">
<g filter="url(#filter0_ii_3365_1924)">
<rect width="110" height="110" rx="26" fill="url(#paint0_linear_3365_1924)"/>
<g opacity="0.5" filter="url(#filter1_f_3365_1924)">
<path d="M85.516 92.4095C84.6186 92.6575 83.8184 92.714 83.0043 92.7137C64.4392 92.7083 45.8742 92.7204 27.3091 92.7035C23.3117 92.6999 20.2819 90.821 18.4471 87.2054C16.6858 83.7345 16.9481 80.3167 19.1121 76.9964C26.6221 65.4733 34.0588 53.8996 41.5574 42.3686C43.1616 39.9016 43.9744 37.2515 43.9339 34.2874C43.894 31.3737 43.8655 28.457 43.9533 25.5455C43.993 24.2262 43.6195 23.7875 42.3025 23.7913C39.712 23.7988 38.2253 21.654 39.0744 19.3368C39.5529 18.0313 40.4836 17.3001 41.8383 17.2977C50.6488 17.2819 59.4594 17.2788 68.2698 17.3015C70.034 17.3061 71.2188 18.4609 71.3511 20.1397C71.5002 22.0319 70.5309 23.393 68.748 23.7451C68.3108 23.8314 67.854 23.8427 67.4066 23.8381C66.7265 23.8311 66.4271 24.15 66.4326 24.8456C66.4647 28.9158 66.4141 32.9885 66.5464 37.055C66.6025 38.7771 67.3899 40.3329 68.3245 41.7842C75.8224 53.4266 83.1225 65.2103 90.8715 76.6727C94.8924 82.6204 91.9928 90.5902 85.516 92.4095ZM48.9551 41.9633C48.4507 43.2023 47.8816 44.4095 47.162 45.531C42.9793 52.0506 38.8051 58.576 34.5909 65.0741C32.6614 68.0492 33.6357 71.8827 36.8075 73.3441C39.3847 74.5315 41.9343 73.9467 44.388 72.9396C48.5553 71.2292 52.0649 68.345 55.8414 65.9379C60.1178 63.2124 64.3118 60.3217 69.2802 59.0167C71.2672 58.4948 71.3457 58.2415 70.1898 56.4475C67.8062 52.748 65.4351 49.0399 63.0455 45.3445C61.1021 42.3392 60.0762 39.0576 60.0988 35.4314C60.1201 32.009 60.0828 28.5862 60.1172 25.1641C60.1264 24.2497 59.8955 23.8003 58.9143 23.8186C56.4432 23.8648 53.9703 23.8653 51.4991 23.8231C50.5496 23.8069 50.2497 24.1907 50.2631 25.1362C50.3043 28.0493 50.265 30.9635 50.2859 33.8771C50.3052 36.582 49.9474 39.2166 48.9551 41.9633Z" fill="black" fill-opacity="0.37"/>
</g>
<path d="M85.516 92.4095C84.6186 92.6575 83.8184 92.714 83.0043 92.7137C64.4392 92.7083 45.8742 92.7204 27.3091 92.7035C23.3117 92.6999 20.2819 90.821 18.4471 87.2055C16.6858 83.7345 16.9481 80.3167 19.1121 76.9964C26.6221 65.4733 34.0588 53.8996 41.5574 42.3686C43.1616 39.9016 43.9744 37.2515 43.9339 34.2874C43.894 31.3737 43.8655 28.457 43.9533 25.5455C43.993 24.2262 43.6195 23.7875 42.3025 23.7913C39.712 23.7988 38.2253 21.654 39.0744 19.3368C39.5529 18.0313 40.4836 17.3001 41.8383 17.2977C50.6488 17.2819 59.4594 17.2788 68.2698 17.3015C70.034 17.3061 71.2188 18.4609 71.3511 20.1397C71.5002 22.0319 70.5309 23.393 68.748 23.7451C68.3108 23.8314 67.854 23.8427 67.4066 23.8381C66.7265 23.8311 66.4271 24.15 66.4326 24.8456C66.4647 28.9158 66.4141 32.9885 66.5464 37.055C66.6025 38.7771 67.3899 40.3329 68.3245 41.7842C75.8224 53.4267 83.1225 65.2103 90.8715 76.6727C94.8924 82.6204 91.9928 90.5902 85.516 92.4095ZM48.9551 41.9633C48.4507 43.2023 47.8816 44.4095 47.162 45.531C42.9793 52.0506 38.8051 58.576 34.5909 65.0741C32.6614 68.0492 33.6357 71.8827 36.8075 73.3441C39.3847 74.5315 41.9343 73.9467 44.388 72.9396C48.5553 71.2292 52.0649 68.345 55.8414 65.9379C60.1178 63.2124 64.3118 60.3217 69.2802 59.0167C71.2672 58.4948 71.3457 58.2415 70.1898 56.4475C67.8062 52.748 65.4351 49.0399 63.0455 45.3445C61.1021 42.3392 60.0762 39.0576 60.0988 35.4314C60.1201 32.009 60.0828 28.5862 60.1172 25.1641C60.1264 24.2497 59.8955 23.8003 58.9143 23.8186C56.4432 23.8648 53.9703 23.8653 51.4991 23.8231C50.5496 23.8069 50.2497 24.1907 50.2631 25.1362C50.3043 28.0493 50.265 30.9636 50.2859 33.8771C50.3052 36.582 49.9474 39.2166 48.9551 41.9633Z" fill="black"/>
</g>
<defs>
<filter id="filter0_ii_3365_1924" x="0" y="0" width="110" height="120.371" filterUnits="userSpaceOnUse" color-interpolation-filters="sRGB">
<feFlood flood-opacity="0" result="BackgroundImageFix"/>
<feBlend mode="normal" in="SourceGraphic" in2="BackgroundImageFix" result="shape"/>
<feColorMatrix in="SourceAlpha" type="matrix" values="0 0 0 0 0 0 0 0 0 0 0 0 0 0 0 0 0 0 127 0" result="hardAlpha"/>
<feMorphology radius="15.7143" operator="dilate" in="SourceAlpha" result="effect1_innerShadow_3365_1924"/>
<feOffset dy="70.7143"/>
<feGaussianBlur stdDeviation="13.0429"/>
<feComposite in2="hardAlpha" operator="arithmetic" k2="-1" k3="1"/>
<feColorMatrix type="matrix" values="0 0 0 0 1 0 0 0 0 1 0 0 0 0 1 0 0 0 0.03 0"/>
<feBlend mode="normal" in2="shape" result="effect1_innerShadow_3365_1924"/>
<feColorMatrix in="SourceAlpha" type="matrix" values="0 0 0 0 0 0 0 0 0 0 0 0 0 0 0 0 0 0 127 0" result="hardAlpha"/>
<feOffset dy="1.57143"/>
<feGaussianBlur stdDeviation="1.72857"/>
<feComposite in2="hardAlpha" operator="arithmetic" k2="-1" k3="1"/>
<feColorMatrix type="matrix" values="0 0 0 0 1 0 0 0 0 1 0 0 0 0 1 0 0 0 0.36 0"/>
<feBlend mode="normal" in2="effect1_innerShadow_3365_1924" result="effect2_innerShadow_3365_1924"/>
</filter>
<filter id="filter1_f_3365_1924" x="2.82997" y="2.82801" width="104.343" height="104.342" filterUnits="userSpaceOnUse" color-interpolation-filters="sRGB">
<feFlood flood-opacity="0" result="BackgroundImageFix"/>
<feBlend mode="normal" in="SourceGraphic" in2="BackgroundImageFix" result="shape"/>
<feGaussianBlur stdDeviation="7.22857" result="effect1_foregroundBlur_3365_1924"/>
</filter>
<linearGradient id="paint0_linear_3365_1924" x1="55" y1="0" x2="55" y2="110" gradientUnits="userSpaceOnUse">
<stop stop-color="#FFB1EE"/>
<stop offset="0.5" stop-color="#E29ED4"/>
<stop offset="1" stop-color="#C68BB9"/>
</linearGradient>
</defs>
</svg>
