<svg width="200" height="200" viewBox="0 0 200 200" fill="none" xmlns="http://www.w3.org/2000/svg">
<rect width="200" height="200" rx="100" fill="#1A1A1A"/>
<path d="M96.005 139.876C96.7857 141.337 97.6961 142.487 98.8041 143.514C100.136 144.747 101.309 144.554 102.488 143.347C104.521 141.266 105.665 138.656 106.655 136.006C109.344 128.806 110.693 121.309 111.49 113.683C112.013 108.677 112.082 103.657 112.308 98.6406C112.406 96.4691 113.951 95.0264 116.002 95.0642C118.071 95.1024 119.764 96.5551 119.783 98.6083C119.913 112.999 118.533 127.164 113.075 140.659C111.797 143.817 110.223 146.835 107.667 149.21C103.096 153.458 97.7746 153.439 93.2723 149.143C89.7712 145.802 88.0157 141.452 86.5172 137.018C85.5005 134.01 84.8357 130.882 84.0328 127.803C83.909 127.328 83.8523 126.828 83.8278 126.336C83.7012 123.804 84.7342 122.323 86.8537 121.961C89.0044 121.594 90.7621 122.804 91.2677 125.252C92.1569 129.557 93.2104 133.803 94.9983 137.836C95.2844 138.481 95.624 139.103 96.005 139.876Z" fill="white"/>
<path d="M76.9352 91.0697C72.661 92.1437 68.484 92.9414 64.5531 94.619C62.6575 95.428 60.8165 96.3289 59.1694 97.5757C56.7068 99.4398 56.6969 100.697 59.1262 102.529C60.6035 103.642 62.2354 104.487 63.941 105.201C71.0034 108.157 78.4623 109.331 86.0059 110.126C90.6504 110.615 95.3116 110.828 99.977 111C102.489 111.093 104.064 112.667 104.087 114.946C104.112 117.337 102.656 118.876 100.05 118.855C87.6904 118.757 75.4864 117.473 63.6759 113.6C60.0957 112.426 56.7343 110.743 53.7977 108.326C48.247 103.757 48.0771 96.99 53.4441 92.1856C58.4661 87.69 64.739 85.8739 71.0492 84.181C72.2092 83.8699 73.3876 83.5975 74.5745 83.4231C77.0383 83.0612 78.7007 84.0438 79.423 86.1909C80.0908 88.176 79.3336 89.739 76.9352 91.0697Z" fill="white"/>
<path d="M135.244 114.45C132.08 115.293 129.136 116.363 125.978 116.421C123.57 116.465 122.118 115.358 121.75 113.176C121.417 111.201 122.68 109.341 124.853 108.815C129.667 107.65 134.522 106.601 138.928 104.22C140.828 103.194 143.489 102.334 143.406 99.8971C143.329 97.6227 140.709 96.8348 138.854 95.8823C132.53 92.6349 125.656 91.3364 118.69 90.4572C112.939 89.7314 107.166 89.2703 101.366 89.1157C98.7052 89.0447 96.9965 87.3703 97.0368 85.1283C97.0767 82.9109 98.6792 81.2635 101.266 81.2884C114.55 81.416 127.704 82.4637 140.167 87.6218C143.528 89.0126 146.619 90.8543 148.97 93.7382C152.195 97.6941 152.071 102.922 148.663 106.729C145.078 110.734 140.337 112.725 135.244 114.45Z" fill="white"/>
<path d="M116.382 67.7364C116.837 69.622 117.275 71.3328 117.682 73.0509C118.268 75.5215 117.179 77.6074 115.098 78.0435C112.575 78.572 110.813 77.341 110.18 74.6545C109.288 70.8705 108.378 67.0921 106.916 63.4721C106.064 61.3619 105.08 59.3235 103.679 57.524C101.692 54.9736 100.013 54.9491 98.0396 57.482C95.9223 60.1996 94.6594 63.3663 93.6051 66.6013C91.1351 74.1793 89.994 81.9924 89.5727 89.9337C89.4266 92.687 89.1617 95.4296 89.1727 98.1951C89.1815 100.415 87.5453 101.896 85.3723 101.881C83.3299 101.867 81.8339 100.425 81.7115 98.2558C81.4595 93.7913 81.8574 89.3353 82.2732 84.9099C83.0881 76.2367 84.5821 67.6819 88.064 59.6002C89.1314 57.1226 90.3495 54.7366 91.968 52.5621C96.8787 45.9651 104.64 45.9782 109.63 52.5611C113.035 57.0521 114.789 62.2603 116.382 67.7364Z" fill="white"/>
</svg>
