<svg width="200" height="200" viewBox="0 0 200 200" fill="none" xmlns="http://www.w3.org/2000/svg">
<g filter="url(#filter0_ii_3391_1974)">
<rect width="200" height="200" rx="100" fill="#1A1A1A"/>
<g clip-path="url(#clip0_3391_1974)">
<path d="M100 152.381C100 145.123 98.6157 138.313 95.8096 131.952C93.1157 125.592 89.3742 120.017 84.66 115.303C79.9457 110.589 74.4083 106.884 68.0477 104.191C61.6872 101.384 54.8776 100 47.6191 100C54.8776 100 61.6872 98.6532 68.0477 95.9219C74.4083 93.1157 79.9831 89.3742 84.66 84.66C89.3742 79.9457 93.0783 74.4083 95.8096 68.0477C98.6157 61.6872 100 54.8776 100 47.6191C100 54.8776 101.347 61.6872 104.078 68.0477C106.884 74.4083 110.626 79.9831 115.34 84.66C120.055 89.3742 125.592 93.1157 131.99 95.9219C138.35 98.6157 145.16 100 152.418 100C145.16 100 138.35 101.384 131.99 104.191C125.629 106.884 120.055 110.589 115.34 115.303C110.626 120.017 106.884 125.555 104.078 131.952C101.384 138.313 100 145.123 100 152.381Z" fill="url(#paint0_radial_3391_1974)"/>
</g>
</g>
<defs>
<filter id="filter0_ii_3391_1974" x="0" y="0" width="200" height="208.297" filterUnits="userSpaceOnUse" color-interpolation-filters="sRGB">
<feFlood flood-opacity="0" result="BackgroundImageFix"/>
<feBlend mode="normal" in="SourceGraphic" in2="BackgroundImageFix" result="shape"/>
<feColorMatrix in="SourceAlpha" type="matrix" values="0 0 0 0 0 0 0 0 0 0 0 0 0 0 0 0 0 0 127 0" result="hardAlpha"/>
<feMorphology radius="12.5714" operator="dilate" in="SourceAlpha" result="effect1_innerShadow_3391_1974"/>
<feOffset dy="56.5714"/>
<feGaussianBlur stdDeviation="10.4343"/>
<feComposite in2="hardAlpha" operator="arithmetic" k2="-1" k3="1"/>
<feColorMatrix type="matrix" values="0 0 0 0 1 0 0 0 0 1 0 0 0 0 1 0 0 0 0.03 0"/>
<feBlend mode="normal" in2="shape" result="effect1_innerShadow_3391_1974"/>
<feColorMatrix in="SourceAlpha" type="matrix" values="0 0 0 0 0 0 0 0 0 0 0 0 0 0 0 0 0 0 127 0" result="hardAlpha"/>
<feOffset dy="1.25714"/>
<feGaussianBlur stdDeviation="1.38286"/>
<feComposite in2="hardAlpha" operator="arithmetic" k2="-1" k3="1"/>
<feColorMatrix type="matrix" values="0 0 0 0 1 0 0 0 0 1 0 0 0 0 1 0 0 0 0.25 0"/>
<feBlend mode="normal" in2="effect1_innerShadow_3391_1974" result="effect2_innerShadow_3391_1974"/>
</filter>
<radialGradient id="paint0_radial_3391_1974" cx="0" cy="0" r="1" gradientUnits="userSpaceOnUse" gradientTransform="translate(41.6915 78.8592) rotate(18.68) scale(111.497 893.245)">
<stop offset="0.07" stop-color="#9168C0"/>
<stop offset="0.490385" stop-color="#5684D1"/>
<stop offset="0.67" stop-color="#1BA1E3"/>
</radialGradient>
<clipPath id="clip0_3391_1974">
<rect width="104.762" height="104.762" fill="white" transform="translate(47.6191 47.6191)"/>
</clipPath>
</defs>
</svg>
