<svg width="200" height="200" viewBox="0 0 200 200" fill="none" xmlns="http://www.w3.org/2000/svg">
<g filter="url(#filter0_ii_3389_1508)">
<rect width="200" height="200" rx="100" fill="url(#paint0_linear_3389_1508)"/>
<g opacity="0.5" filter="url(#filter1_f_3389_1508)">
<path d="M129.063 135.628C128.208 135.864 127.446 135.918 126.671 135.918C108.99 135.913 91.3088 135.924 73.6278 135.908C69.8207 135.905 66.9352 134.115 65.1878 130.672C63.5103 127.366 63.7602 124.111 65.8211 120.949C72.9734 109.974 80.0561 98.952 87.1976 87.97C88.7254 85.6206 89.4995 83.0967 89.4609 80.2736C89.4229 77.4987 89.3958 74.7209 89.4793 71.9481C89.5172 70.6916 89.1615 70.2738 87.9072 70.2774C85.4401 70.2845 84.0241 68.2419 84.8329 66.035C85.2885 64.7917 86.1749 64.0953 87.4651 64.093C95.856 64.0779 104.247 64.075 112.638 64.0967C114.318 64.101 115.446 65.2009 115.572 66.7997C115.714 68.6017 114.791 69.8981 113.093 70.2334C112.677 70.3156 112.242 70.3264 111.816 70.322C111.168 70.3153 110.883 70.619 110.888 71.2815C110.919 75.1578 110.871 79.0366 110.997 82.9095C111.05 84.5496 111.8 86.0313 112.69 87.4134C119.831 98.5015 126.783 109.724 134.163 120.641C137.993 126.305 135.231 133.895 129.063 135.628ZM94.243 87.5841C93.7626 88.764 93.2206 89.9137 92.5353 90.9819C88.5518 97.191 84.5763 103.406 80.5628 109.594C78.7252 112.428 79.653 116.079 82.6739 117.471C85.1283 118.601 87.5566 118.044 89.8933 117.085C93.8622 115.456 97.2047 112.709 100.801 110.417C104.874 107.821 108.868 105.068 113.6 103.825C115.493 103.328 115.567 103.087 114.467 101.379C112.196 97.8551 109.938 94.3237 107.662 90.8043C105.812 87.9421 104.835 84.8167 104.856 81.3632C104.876 78.1038 104.841 74.844 104.874 71.5848C104.882 70.714 104.662 70.2859 103.728 70.3034C101.374 70.3474 99.0194 70.3479 96.6658 70.3077C95.7615 70.2923 95.4759 70.6578 95.4887 71.5582C95.5279 74.3326 95.4905 77.1081 95.5104 79.883C95.5288 82.459 95.1881 84.9681 94.243 87.5841Z" fill="black" fill-opacity="0.37"/>
</g>
<path d="M142.381 151.958C141.135 152.303 140.024 152.381 138.893 152.381C113.108 152.374 87.3234 152.39 61.5386 152.367C55.9866 152.362 51.7785 149.752 49.2303 144.731C46.784 139.91 47.1483 135.163 50.1538 130.551C60.5844 114.547 70.9132 98.4725 81.3279 82.4572C83.556 79.0309 84.6849 75.3502 84.6285 71.2333C84.5732 67.1865 84.5336 63.1356 84.6555 59.0919C84.7107 57.2595 84.1919 56.6502 82.3627 56.6555C78.7649 56.6658 76.6999 53.687 77.8793 50.4686C78.5438 48.6555 79.8365 47.6399 81.718 47.6365C93.9548 47.6146 106.192 47.6103 118.428 47.6419C120.879 47.6482 122.524 49.2522 122.708 51.5838C122.915 54.2118 121.569 56.1023 119.093 56.5913C118.485 56.7112 117.851 56.7269 117.23 56.7205C116.285 56.7107 115.869 57.1536 115.877 58.1198C115.921 63.7728 115.851 69.4293 116.035 75.0773C116.113 77.4691 117.206 79.6299 118.504 81.6455C128.918 97.8157 139.057 114.182 149.82 130.102C155.404 138.363 151.377 149.432 142.381 151.958ZM91.6025 81.8944C90.9019 83.6151 90.1115 85.2918 89.1121 86.8495C83.3028 95.9045 77.5052 104.968 71.6522 113.993C68.9724 118.125 70.3254 123.449 74.7308 125.479C78.3102 127.128 81.8514 126.316 85.2592 124.917C91.0472 122.541 95.9216 118.536 101.167 115.192C107.106 111.407 112.931 107.392 119.832 105.58C122.592 104.855 122.701 104.503 121.095 102.011C117.785 96.873 114.491 91.7229 111.172 86.5905C108.473 82.4165 107.048 77.8587 107.08 72.8222C107.109 68.069 107.058 63.315 107.105 58.5621C107.118 57.2921 106.797 56.6679 105.435 56.6934C102.003 56.7576 98.568 56.7582 95.1358 56.6996C93.817 56.6771 93.4005 57.2102 93.4191 58.5233C93.4763 62.5693 93.4218 66.6169 93.4507 70.6636C93.4776 74.4203 92.9807 78.0795 91.6025 81.8944Z" fill="black"/>
</g>
<defs>
<filter id="filter0_ii_3389_1508" x="0" y="0" width="200" height="209.878" filterUnits="userSpaceOnUse" color-interpolation-filters="sRGB">
<feFlood flood-opacity="0" result="BackgroundImageFix"/>
<feBlend mode="normal" in="SourceGraphic" in2="BackgroundImageFix" result="shape"/>
<feColorMatrix in="SourceAlpha" type="matrix" values="0 0 0 0 0 0 0 0 0 0 0 0 0 0 0 0 0 0 127 0" result="hardAlpha"/>
<feMorphology radius="14.966" operator="dilate" in="SourceAlpha" result="effect1_innerShadow_3389_1508"/>
<feOffset dy="67.3469"/>
<feGaussianBlur stdDeviation="12.4218"/>
<feComposite in2="hardAlpha" operator="arithmetic" k2="-1" k3="1"/>
<feColorMatrix type="matrix" values="0 0 0 0 1 0 0 0 0 1 0 0 0 0 1 0 0 0 0.03 0"/>
<feBlend mode="normal" in2="shape" result="effect1_innerShadow_3389_1508"/>
<feColorMatrix in="SourceAlpha" type="matrix" values="0 0 0 0 0 0 0 0 0 0 0 0 0 0 0 0 0 0 127 0" result="hardAlpha"/>
<feOffset dy="1.4966"/>
<feGaussianBlur stdDeviation="1.64626"/>
<feComposite in2="hardAlpha" operator="arithmetic" k2="-1" k3="1"/>
<feColorMatrix type="matrix" values="0 0 0 0 1 0 0 0 0 1 0 0 0 0 1 0 0 0 0.36 0"/>
<feBlend mode="normal" in2="effect1_innerShadow_3389_1508" result="effect2_innerShadow_3389_1508"/>
</filter>
<filter id="filter1_f_3389_1508" x="50.3143" y="50.3123" width="99.3743" height="99.3743" filterUnits="userSpaceOnUse" color-interpolation-filters="sRGB">
<feFlood flood-opacity="0" result="BackgroundImageFix"/>
<feBlend mode="normal" in="SourceGraphic" in2="BackgroundImageFix" result="shape"/>
<feGaussianBlur stdDeviation="6.88435" result="effect1_foregroundBlur_3389_1508"/>
</filter>
<linearGradient id="paint0_linear_3389_1508" x1="100" y1="0" x2="100" y2="200" gradientUnits="userSpaceOnUse">
<stop stop-color="#FFB1EE"/>
<stop offset="0.5" stop-color="#E29ED4"/>
<stop offset="1" stop-color="#C68BB9"/>
</linearGradient>
</defs>
</svg>
