<svg width="200" height="200" viewBox="0 0 200 200" fill="none" xmlns="http://www.w3.org/2000/svg">
<g filter="url(#filter0_ii_3392_2136)">
<rect width="200" height="200" rx="100" fill="#1A1A1A"/>
<path d="M95.1405 90.8839C78.62 95.7982 49.4381 107.058 48.0361 152.745C53.3117 128.145 66.32 124.619 90.2263 118.996C114.133 113.388 127.126 107.058 141.551 89.8288C155.961 72.6001 151.047 48 151.047 48C151.047 61.3552 141.551 70.143 132.416 76.4737C123.282 82.8043 111.661 85.9697 95.1405 90.8839Z" fill="url(#paint0_linear_3392_2136)"/>
<path d="M48.0366 152.76C48.08 151.575 48.1378 150.433 48.21 149.306C48.08 150.52 48.0077 151.676 48.0366 152.76Z" fill="url(#paint1_linear_3392_2136)"/>
<path d="M109.522 113.359C97.1062 115.701 84.4593 115.426 76.1629 117.609C61.4057 121.468 49.1057 139.043 48.0361 152.745C48.0795 151.575 48.1373 150.433 48.2096 149.291C49.8428 134.375 63.5882 109.905 93.7385 96.5064C103.336 92.2426 111.979 87.7186 119.495 83.0934C124.351 81.2 128.601 79.1042 132.402 76.4737C141.537 70.143 151.033 61.3552 151.033 48C151.033 48 151.813 68.0616 145.309 85.2326C144.413 86.8658 143.401 88.4413 142.245 89.93C133.486 101.305 123.152 108.272 109.522 113.359Z" fill="url(#paint2_linear_3392_2136)"/>
<path d="M48.2381 148.713C48.1514 150.028 48.0791 151.372 48.0358 152.745C47.9491 151.502 48.0213 150.144 48.2381 148.713C51.1867 106.378 79.1111 95.6536 95.1402 90.8839C111.661 85.9697 123.267 82.8043 132.402 76.4737C141.536 70.143 151.032 61.3552 151.032 48C151.032 48 155.961 72.6001 141.536 89.8288C127.126 107.058 115.173 100.019 91.2666 105.641C69.4561 110.787 50.5652 133.782 48.2381 148.713Z" fill="url(#paint3_linear_3392_2136)"/>
<path d="M85.2976 108.113C107.802 103.892 121.851 104.239 137.331 87.7186C152.796 71.1981 151.033 48 151.033 48C151.033 61.3552 141.537 70.143 132.402 76.4737C128.586 79.1187 124.337 81.2 119.495 83.0934C111.979 87.7186 101.587 92.4449 91.9896 96.7087C61.8394 110.107 49.8428 134.375 48.2096 149.291C48.1373 150.418 48.0795 151.56 48.0361 152.745C49.1057 139.029 62.8077 112.333 85.2976 108.113Z" fill="url(#paint4_linear_3392_2136)"/>
<path d="M48.0366 152.76C48.08 151.575 48.1378 150.433 48.21 149.306C48.08 150.52 48.0077 151.676 48.0366 152.76Z" fill="url(#paint5_linear_3392_2136)"/>
<path d="M101.125 94.4106C59.9895 102.143 47.6895 138.465 48.0364 152.76C49.0915 139.058 61.0447 123.231 76.5101 114.79C99.3612 103.184 123.268 109.515 139.788 92.6473C156.309 75.7799 151.033 48 151.033 48C151.033 61.3552 146.104 74.0165 137.316 81.4024C128.543 88.7737 110.968 92.5316 101.125 94.4106Z" fill="url(#paint6_linear_3392_2136)"/>
</g>
<defs>
<filter id="filter0_ii_3392_2136" x="0" y="0" width="200" height="208.297" filterUnits="userSpaceOnUse" color-interpolation-filters="sRGB">
<feFlood flood-opacity="0" result="BackgroundImageFix"/>
<feBlend mode="normal" in="SourceGraphic" in2="BackgroundImageFix" result="shape"/>
<feColorMatrix in="SourceAlpha" type="matrix" values="0 0 0 0 0 0 0 0 0 0 0 0 0 0 0 0 0 0 127 0" result="hardAlpha"/>
<feMorphology radius="12.5714" operator="dilate" in="SourceAlpha" result="effect1_innerShadow_3392_2136"/>
<feOffset dy="56.5714"/>
<feGaussianBlur stdDeviation="10.4343"/>
<feComposite in2="hardAlpha" operator="arithmetic" k2="-1" k3="1"/>
<feColorMatrix type="matrix" values="0 0 0 0 1 0 0 0 0 1 0 0 0 0 1 0 0 0 0.03 0"/>
<feBlend mode="normal" in2="shape" result="effect1_innerShadow_3392_2136"/>
<feColorMatrix in="SourceAlpha" type="matrix" values="0 0 0 0 0 0 0 0 0 0 0 0 0 0 0 0 0 0 127 0" result="hardAlpha"/>
<feOffset dy="1.25714"/>
<feGaussianBlur stdDeviation="1.38286"/>
<feComposite in2="hardAlpha" operator="arithmetic" k2="-1" k3="1"/>
<feColorMatrix type="matrix" values="0 0 0 0 1 0 0 0 0 1 0 0 0 0 1 0 0 0 0.25 0"/>
<feBlend mode="normal" in2="effect1_innerShadow_3392_2136" result="effect2_innerShadow_3392_2136"/>
</filter>
<linearGradient id="paint0_linear_3392_2136" x1="99.2169" y1="116.767" x2="96.7561" y2="153.326" gradientUnits="userSpaceOnUse">
<stop stop-color="#FD5200"/>
<stop offset="0.2722" stop-color="#FFDC38"/>
<stop offset="0.9626" stop-color="#F3FEAB"/>
</linearGradient>
<linearGradient id="paint1_linear_3392_2136" x1="76.3653" y1="42.047" x2="51.7443" y2="137.058" gradientUnits="userSpaceOnUse">
<stop offset="0.4072" stop-color="#9E010A"/>
<stop offset="0.6244" stop-color="#FC56A4"/>
<stop offset="0.689" stop-color="#F2A780"/>
<stop offset="0.7431" stop-color="#FFC78A"/>
</linearGradient>
<linearGradient id="paint2_linear_3392_2136" x1="104.192" y1="70.9214" x2="95.0806" y2="136.419" gradientUnits="userSpaceOnUse">
<stop offset="0.4072" stop-color="#9E010A"/>
<stop offset="0.6244" stop-color="#FC56A4"/>
<stop offset="0.689" stop-color="#F2A780"/>
<stop offset="0.7431" stop-color="#FFC78A"/>
</linearGradient>
<linearGradient id="paint3_linear_3392_2136" x1="122.835" y1="84.9281" x2="53.5839" y2="134.845" gradientUnits="userSpaceOnUse">
<stop offset="0.0753769" stop-color="#0C64CC"/>
<stop offset="0.3348" stop-color="#1F9FE3"/>
<stop offset="0.4851" stop-color="#1B9DEB"/>
<stop offset="0.7569" stop-color="#72F07F"/>
<stop offset="0.8584" stop-color="#DBFEC8"/>
<stop offset="0.9913" stop-color="#F6F9B1"/>
</linearGradient>
<linearGradient id="paint4_linear_3392_2136" x1="120.801" y1="113.03" x2="90.9891" y2="95.2853" gradientUnits="userSpaceOnUse">
<stop offset="0.0251256" stop-color="#4226A2"/>
<stop offset="0.2769" stop-color="#7357CB"/>
<stop offset="0.4721" stop-color="#4783DF"/>
<stop offset="0.5228" stop-color="#3B8FE4"/>
<stop offset="0.5797" stop-color="#3B9DE4"/>
<stop offset="0.6561" stop-color="#3BA7E4"/>
<stop offset="0.7412" stop-color="#3BABE4"/>
</linearGradient>
<linearGradient id="paint5_linear_3392_2136" x1="85.1059" y1="173.041" x2="55.5776" y2="155.465" gradientUnits="userSpaceOnUse">
<stop stop-color="#4226A2"/>
<stop offset="0.3221" stop-color="#7357CB"/>
<stop offset="0.6283" stop-color="#3B8FE4"/>
</linearGradient>
<linearGradient id="paint6_linear_3392_2136" x1="153.454" y1="63.0042" x2="50.4563" y2="143.504" gradientUnits="userSpaceOnUse">
<stop stop-color="#7C4ADF"/>
<stop offset="0.3459" stop-color="#E251D8"/>
<stop offset="0.7297" stop-color="#FCDFBC"/>
<stop offset="0.8312" stop-color="#F6F8B0"/>
<stop offset="0.9186" stop-color="#FFFFF2"/>
<stop offset="0.9894" stop-color="#F6F8B0"/>
</linearGradient>
</defs>
</svg>
