<svg width="200" height="200" viewBox="0 0 200 200" fill="none" xmlns="http://www.w3.org/2000/svg">
<g filter="url(#filter0_ii_3392_2150)">
<rect width="200" height="200" rx="100" fill="#FFC125"/>
<path fill-rule="evenodd" clip-rule="evenodd" d="M136.709 68.2905C137.598 68.0933 138.476 68 139.33 68C147.293 68 153.355 76.1255 149.68 84.5351C148.66 86.8739 146.756 88.7781 144.415 89.8001C135.102 93.8692 126.139 85.9982 128.173 76.8295C129.106 72.6204 132.503 69.2235 136.709 68.2905ZM51.1204 69.6942H68.0839C69.2543 69.6942 70.2043 70.6463 70.2043 71.8147V103.029C70.2043 118.791 83.3298 131.613 99.4662 131.613C114.928 131.613 127.63 119.836 128.66 104.982C128.739 103.869 129.712 103.029 130.827 103.029H147.755C148.949 103.029 149.937 104.015 149.886 105.207C148.726 131.653 126.553 152.817 99.4662 152.817C71.6398 152.817 49 130.481 49 103.029V71.8147C49 70.6463 49.9478 69.6942 51.1204 69.6942Z" fill="white"/>
</g>
<defs>
<filter id="filter0_ii_3392_2150" x="0" y="0" width="200" height="208.297" filterUnits="userSpaceOnUse" color-interpolation-filters="sRGB">
<feFlood flood-opacity="0" result="BackgroundImageFix"/>
<feBlend mode="normal" in="SourceGraphic" in2="BackgroundImageFix" result="shape"/>
<feColorMatrix in="SourceAlpha" type="matrix" values="0 0 0 0 0 0 0 0 0 0 0 0 0 0 0 0 0 0 127 0" result="hardAlpha"/>
<feMorphology radius="12.5714" operator="dilate" in="SourceAlpha" result="effect1_innerShadow_3392_2150"/>
<feOffset dy="56.5714"/>
<feGaussianBlur stdDeviation="10.4343"/>
<feComposite in2="hardAlpha" operator="arithmetic" k2="-1" k3="1"/>
<feColorMatrix type="matrix" values="0 0 0 0 1 0 0 0 0 1 0 0 0 0 1 0 0 0 0.03 0"/>
<feBlend mode="normal" in2="shape" result="effect1_innerShadow_3392_2150"/>
<feColorMatrix in="SourceAlpha" type="matrix" values="0 0 0 0 0 0 0 0 0 0 0 0 0 0 0 0 0 0 127 0" result="hardAlpha"/>
<feOffset dy="1.25714"/>
<feGaussianBlur stdDeviation="1.38286"/>
<feComposite in2="hardAlpha" operator="arithmetic" k2="-1" k3="1"/>
<feColorMatrix type="matrix" values="0 0 0 0 1 0 0 0 0 1 0 0 0 0 1 0 0 0 0.25 0"/>
<feBlend mode="normal" in2="effect1_innerShadow_3392_2150" result="effect2_innerShadow_3392_2150"/>
</filter>
</defs>
</svg>
