<svg width="26" height="26" viewBox="0 0 26 26" fill="none" xmlns="http://www.w3.org/2000/svg">
<g clip-path="url(#clip0_3530_1799)">
<path d="M13.0006 0.863281C19.7037 0.863281 25.1271 6.28672 25.1271 12.9797C25.1271 19.6727 19.7037 25.1062 13.0006 25.1062C6.29746 25.1062 0.874023 19.6828 0.874023 12.9898C0.874023 6.29688 6.29746 0.863281 13.0006 0.863281Z" fill="#E74D89"/>
<g clip-path="url(#clip1_3530_1799)">
<path d="M0.650673 12.927C0.650069 15.1115 1.22086 17.2445 2.30621 19.1246L0.546875 25.5482L7.12064 23.8245C8.93887 24.8143 10.976 25.333 13.0462 25.3331H13.0517C19.8857 25.3331 25.4488 19.7721 25.4517 12.9368C25.4531 9.6246 24.1643 6.51004 21.8229 4.16682C19.4819 1.82379 16.3685 0.532762 13.0512 0.53125C6.21629 0.53125 0.653596 6.09203 0.650774 12.927" fill="url(#paint0_linear_3530_1799)"/>
<path d="M0.208415 12.9224C0.20771 15.1855 0.798958 17.3948 1.923 19.3422L0.100586 25.9961L6.91007 24.2106C8.7863 25.2336 10.8987 25.773 13.0483 25.7738H13.0538C20.1331 25.7738 25.896 20.0126 25.899 12.9327C25.9002 9.50149 24.5652 6.27497 22.1401 3.8478C19.7148 1.42093 16.49 0.0834421 13.0538 0.0820312C5.97336 0.0820312 0.211237 5.84234 0.208415 12.9224ZM4.26371 19.0068L4.00945 18.6032C2.94063 16.9037 2.37649 14.9398 2.3773 12.9232C2.37952 7.03844 7.16876 2.25071 13.0579 2.25071C15.9098 2.25192 18.59 3.36367 20.6059 5.38079C22.6217 7.39811 23.731 10.0797 23.7303 12.9319C23.7276 18.8166 18.9383 23.605 13.0538 23.605H13.0496C11.1336 23.604 9.2544 23.0894 7.61559 22.117L7.22559 21.8858L3.18471 22.9452L4.26371 19.0068Z" fill="url(#paint1_linear_3530_1799)"/>
<path d="M9.84288 7.55422C9.60243 7.01981 9.34938 7.00903 9.12072 6.99965C8.93348 6.99159 8.71944 6.9922 8.50559 6.9922C8.29155 6.9922 7.94377 7.07272 7.64981 7.39369C7.35555 7.71496 6.52637 8.49133 6.52637 10.0704C6.52637 11.6494 7.67651 13.1756 7.83685 13.3899C7.99738 13.6039 10.0572 16.948 13.3195 18.2345C16.0308 19.3036 16.5825 19.091 17.1709 19.0374C17.7595 18.9839 19.07 18.2612 19.3373 17.5117C19.6049 16.7624 19.6049 16.12 19.5247 15.9858C19.4444 15.8521 19.2304 15.7717 18.9094 15.6113C18.5885 15.4509 17.0104 14.6743 16.7163 14.5672C16.422 14.4601 16.208 14.4067 15.994 14.7281C15.7799 15.049 15.1653 15.7717 14.978 15.9858C14.7908 16.2003 14.6035 16.227 14.2826 16.0665C13.9615 15.9055 12.9278 15.567 11.7015 14.4736C10.7473 13.6229 10.1032 12.5723 9.91594 12.2509C9.7287 11.9301 9.89589 11.7561 10.0568 11.5962C10.201 11.4524 10.3779 11.2214 10.5385 11.0341C10.6986 10.8466 10.752 10.7129 10.859 10.4989C10.9661 10.2846 10.9125 10.0972 10.8324 9.93665C10.752 9.77611 10.1283 8.1888 9.84288 7.55422Z" fill="white"/>
</g>
</g>
<defs>
<linearGradient id="paint0_linear_3530_1799" x1="12.9993" y1="25.5482" x2="12.9993" y2="0.53125" gradientUnits="userSpaceOnUse">
<stop stop-color="#1FAF38"/>
<stop offset="1" stop-color="#60D669"/>
</linearGradient>
<linearGradient id="paint1_linear_3530_1799" x1="12.9998" y1="25.9961" x2="12.9998" y2="0.0820312" gradientUnits="userSpaceOnUse">
<stop stop-color="#F9F9F9"/>
<stop offset="1" stop-color="white"/>
</linearGradient>
<clipPath id="clip0_3530_1799">
<rect width="26" height="26" fill="white"/>
</clipPath>
<clipPath id="clip1_3530_1799">
<rect width="25.805" height="25.805" fill="white" transform="translate(0.0976562 0.0820312)"/>
</clipPath>
</defs>
</svg>
