<svg width="26" height="26" viewBox="0 0 26 26" fill="none" xmlns="http://www.w3.org/2000/svg">
<g clip-path="url(#clip0_3530_1796)">
<path d="M13.0006 0.863281C19.7037 0.863281 25.1271 6.28672 25.1271 12.9797C25.1271 19.6727 19.7037 25.1062 13.0006 25.1062C6.29746 25.1062 0.874023 19.6828 0.874023 12.9898C0.874023 6.29688 6.29746 0.863281 13.0006 0.863281Z" fill="#E74D89"/>
<path d="M13 25.9695C5.82969 25.9695 0 20.15 0 12.9898C0 5.81953 5.82969 0 13 0C20.1703 0 26 5.81953 26 12.9797C26 20.1398 20.1703 25.9695 13 25.9695ZM23.9586 14.757C23.5828 14.6352 20.5258 13.7313 17.0422 14.2797C18.4945 18.2609 19.0836 21.5109 19.1953 22.1812C21.6938 20.5055 23.4711 17.8445 23.9586 14.757ZM17.3367 23.207C17.1742 22.232 16.5242 18.8398 14.9703 14.7977C14.95 14.8078 14.9195 14.818 14.8992 14.818C8.63281 17.0016 6.38828 21.3383 6.18516 21.7445C8.06406 23.207 10.4305 24.0805 13 24.0805C14.5336 24.0906 16.0062 23.7758 17.3367 23.207ZM4.75312 20.4141C5.00703 19.9875 8.05391 14.95 13.782 13.0914C13.9242 13.0406 14.0766 13 14.2188 12.9594C13.9445 12.3297 13.6398 11.7 13.3148 11.0805C7.76953 12.7359 2.38672 12.6648 1.89922 12.6547C1.89922 12.7664 1.88906 12.8781 1.88906 12.9898C1.89922 15.8438 2.97578 18.4438 4.75312 20.4141ZM2.13281 10.725C2.63047 10.7352 7.20078 10.7555 12.4008 9.37422C10.5625 6.10391 8.57187 3.36172 8.2875 2.96563C5.16953 4.42813 2.85391 7.29219 2.13281 10.725ZM10.4 2.21406C10.7047 2.62031 12.7258 5.3625 14.5437 8.70391C18.4945 7.22109 20.1602 4.98672 20.3633 4.70234C18.4031 2.96562 15.8234 1.90937 13 1.90937C12.1062 1.90937 11.2328 2.02109 10.4 2.21406ZM21.5922 5.98203C21.3586 6.29688 19.5 8.68359 15.3969 10.3594C15.6508 10.8875 15.9047 11.4258 16.1383 11.9641C16.2195 12.157 16.3008 12.35 16.382 12.5328C20.0789 12.0656 23.7453 12.8172 24.1109 12.8883C24.0805 10.2781 23.1461 7.87109 21.5922 5.98203Z" fill="#B2215A"/>
</g>
<defs>
<clipPath id="clip0_3530_1796">
<rect width="26" height="26" fill="white"/>
</clipPath>
</defs>
</svg>
