<svg width="26" height="26" viewBox="0 0 26 26" fill="none" xmlns="http://www.w3.org/2000/svg">
<g clip-path="url(#clip0_3530_1793)">
<path d="M22.5984 0.4375H3.40305C1.7663 0.4375 0.439453 1.76435 0.439453 3.40109V22.5944C0.439453 24.2311 1.7663 25.558 3.40305 25.558H22.5984C24.2351 25.558 25.562 24.2311 25.562 22.5944V3.40109C25.562 1.76435 24.2351 0.4375 22.5984 0.4375Z" fill="url(#paint0_linear_3530_1793)"/>
<path d="M10.6906 12.2454C10.6906 12.2454 12.8234 12.087 12.8234 9.58648C12.8234 7.08602 11.0786 5.86523 8.86855 5.86523H1.59668V19.8402H8.86855C8.86855 19.8402 13.3068 19.9804 13.3068 15.7148C13.3068 15.7148 13.5018 12.2454 10.6906 12.2454ZM4.79996 8.34945H8.86246C8.86246 8.34945 9.85168 8.34945 9.85168 9.80383C9.85168 11.2582 9.27074 11.4695 8.61059 11.4695H4.80199L4.79996 8.34945ZM8.67965 17.356H4.80199V13.6226H8.86449C8.86449 13.6226 10.3371 13.6023 10.3371 15.5421C10.3412 17.157 9.26465 17.3398 8.68168 17.356H8.67965ZM19.2279 9.42195C13.8532 9.42195 13.8593 14.7905 13.8593 14.7905C13.8593 14.7905 13.4896 20.1327 19.2279 20.1327C19.2279 20.1327 24.0095 20.4049 24.0095 16.4176H21.5517C21.5517 16.4176 21.6329 17.9207 19.3173 17.9207C19.3173 17.9207 16.8575 18.0852 16.8575 15.4832H24.0989C24.0989 15.4832 24.885 9.42195 19.2279 9.42195ZM21.4136 13.6226H16.8229C16.8229 13.6226 17.1236 11.4695 19.2828 11.4695C21.442 11.4695 21.4136 13.6226 21.4136 13.6226ZM16.2217 6.68992H21.9864V8.41039H16.2217V6.68992Z" fill="white"/>
</g>
<defs>
<linearGradient id="paint0_linear_3530_1793" x1="13.0007" y1="0.4375" x2="13.0007" y2="25.56" gradientUnits="userSpaceOnUse">
<stop stop-color="#005CFF"/>
<stop offset="1" stop-color="#0047AD"/>
</linearGradient>
<clipPath id="clip0_3530_1793">
<rect width="26" height="26" fill="white"/>
</clipPath>
</defs>
</svg>
