<svg width="26" height="26" viewBox="0 0 26 26" fill="none" xmlns="http://www.w3.org/2000/svg">
<rect width="26" height="26" rx="4.33333" fill="#1A1A1A"/>
<g clip-path="url(#clip0_3530_1810)">
<path d="M19.2193 15.1801C18.1747 15.1801 17.1955 14.7375 16.3054 14.017L16.5215 12.9971L16.5291 12.9573C16.7253 11.8738 17.3339 10.0567 19.2202 10.0567C19.8996 10.0572 20.551 10.3273 21.0314 10.8077C21.5118 11.2881 21.7819 11.9395 21.7824 12.6189C21.7812 13.2981 21.5107 13.9491 21.0302 14.4292C20.5497 14.9094 19.8985 15.1794 19.2193 15.1801ZM19.2193 7.4641C16.8125 7.4641 14.9442 9.02721 14.1858 11.6027C13.0294 9.86422 12.1497 7.77691 11.6388 6.01758H9.04529V12.7592C9.04479 13.3994 8.79029 14.0133 8.33765 14.4661C7.88501 14.919 7.2712 15.1737 6.63095 15.1745C5.99102 15.1732 5.3777 14.9182 4.92547 14.4655C4.47324 14.0127 4.219 13.3991 4.2185 12.7592V6.01758H1.625V12.7592C1.625 15.5214 3.87156 17.786 6.63095 17.786C9.39223 17.786 11.6388 15.5214 11.6388 12.7592V11.6311C12.1402 12.6805 12.7592 13.744 13.51 14.6844L11.9241 22.1473H14.5754L15.7253 16.7347C16.7329 17.3784 17.8913 17.786 19.2193 17.786C22.063 17.786 24.375 15.4617 24.375 12.6198C24.375 9.77607 22.063 7.4641 19.2193 7.4641Z" fill="white"/>
</g>
<defs>
<clipPath id="clip0_3530_1810">
<rect width="22.75" height="22.75" fill="white" transform="translate(1.625 2.70898)"/>
</clipPath>
</defs>
</svg>
